<svg xmlns="http://www.w3.org/2000/svg" xmlns:xlink="http://www.w3.org/1999/xlink" width="500" zoomAndPan="magnify" viewBox="0 0 375 374.999991" height="500" preserveAspectRatio="xMidYMid meet" version="1.0"><defs><g/><clipPath id="1066bb252b"><path d="M 2 0 L 57.75 0 L 57.75 77 L 2 77 Z M 2 0 " clip-rule="nonzero"/></clipPath></defs><g clip-path="url(#1066bb252b)"><path fill="#2d3557" d="M 57.4375 47.421875 C 57.421875 47.113281 57.378906 46.8125 57.300781 46.511719 C 57.226562 46.210938 57.121094 45.921875 56.988281 45.644531 C 56.855469 45.363281 56.699219 45.101562 56.511719 44.851562 C 56.328125 44.605469 56.121094 44.378906 55.890625 44.171875 C 55.660156 43.964844 55.414062 43.78125 55.148438 43.625 C 54.882812 43.46875 54.601562 43.335938 54.3125 43.234375 C 54.019531 43.132812 53.722656 43.058594 53.414062 43.015625 C 53.109375 42.972656 52.800781 42.960938 52.492188 42.976562 C 52.183594 42.996094 51.882812 43.042969 51.582031 43.121094 C 51.28125 43.199219 50.992188 43.304688 50.714844 43.4375 C 50.4375 43.574219 50.175781 43.734375 49.929688 43.921875 C 49.683594 44.109375 49.457031 44.316406 49.253906 44.546875 C 49.046875 44.78125 48.867188 45.027344 48.710938 45.296875 C 48.554688 45.5625 48.429688 45.84375 48.328125 46.136719 C 48.226562 46.425781 48.15625 46.726562 48.117188 47.03125 C 48.074219 47.339844 48.066406 47.648438 48.085938 47.957031 C 48.101562 48.296875 48.113281 48.644531 48.113281 48.992188 C 48.113281 49.710938 48.070312 50.425781 47.988281 51.140625 C 47.902344 51.855469 47.777344 52.5625 47.609375 53.261719 C 47.441406 53.960938 47.234375 54.648438 46.984375 55.324219 C 46.734375 55.996094 46.449219 56.65625 46.121094 57.296875 C 45.792969 57.9375 45.429688 58.554688 45.03125 59.152344 C 44.632812 59.75 44.199219 60.324219 43.730469 60.871094 C 43.265625 61.417969 42.765625 61.933594 42.238281 62.421875 C 41.707031 62.910156 41.152344 63.363281 40.570312 63.785156 C 39.988281 64.207031 39.382812 64.59375 38.757812 64.945312 C 38.128906 65.296875 37.480469 65.609375 36.816406 65.882812 C 36.152344 66.15625 35.472656 66.390625 34.78125 66.585938 C 34.089844 66.78125 33.386719 66.933594 32.675781 67.042969 C 31.964844 67.15625 31.25 67.222656 30.53125 67.25 C 29.8125 67.277344 29.097656 67.261719 28.378906 67.203125 C 27.664062 67.144531 26.953125 67.042969 26.246094 66.902344 C 25.542969 66.761719 24.847656 66.578125 24.164062 66.351562 C 23.480469 66.128906 22.8125 65.867188 22.160156 65.5625 C 21.507812 65.257812 20.875 64.917969 20.265625 64.542969 C 19.652344 64.164062 19.066406 63.75 18.503906 63.304688 C 17.9375 62.855469 17.402344 62.378906 16.898438 61.867188 C 16.390625 61.355469 15.914062 60.820312 15.472656 60.25 C 15.03125 59.683594 14.621094 59.09375 14.25 58.480469 C 13.875 57.867188 13.539062 57.230469 13.242188 56.578125 C 12.941406 55.921875 12.683594 55.253906 12.464844 54.566406 C 12.246094 53.882812 12.066406 53.1875 11.929688 52.480469 C 11.792969 51.773438 11.699219 51.0625 11.648438 50.347656 C 11.59375 49.628906 11.582031 48.910156 11.617188 48.191406 C 11.648438 47.472656 11.722656 46.761719 11.839844 46.050781 C 11.953125 45.339844 12.113281 44.640625 12.3125 43.949219 C 12.511719 43.257812 12.75 42.582031 13.027344 41.917969 C 13.308594 41.253906 13.625 40.613281 13.980469 39.984375 C 14.335938 39.359375 14.726562 38.757812 15.152344 38.179688 C 15.578125 37.601562 16.039062 37.046875 16.53125 36.523438 C 17.023438 36 17.542969 35.503906 18.09375 35.042969 C 18.640625 34.578125 19.21875 34.148438 19.820312 33.753906 C 20.417969 33.359375 21.042969 33 21.683594 32.675781 C 22.328125 32.355469 22.988281 32.074219 23.664062 31.828125 C 24.339844 31.585938 25.027344 31.382812 25.730469 31.21875 C 26.429688 31.058594 27.136719 30.9375 27.851562 30.859375 C 28.566406 30.777344 29.285156 30.742188 30.003906 30.75 C 30.722656 30.753906 31.4375 30.800781 32.152344 30.894531 C 32.867188 30.984375 33.570312 31.117188 34.269531 31.289062 C 34.96875 31.464844 35.652344 31.675781 36.324219 31.933594 C 36.996094 32.1875 37.652344 32.480469 38.289062 32.8125 C 38.929688 33.144531 39.542969 33.515625 40.136719 33.917969 C 40.734375 34.324219 41.300781 34.761719 41.84375 35.234375 C 42.386719 35.707031 42.898438 36.210938 43.382812 36.742188 C 43.863281 37.273438 44.3125 37.835938 44.730469 38.421875 C 44.910156 38.671875 45.109375 38.902344 45.335938 39.113281 C 45.558594 39.324219 45.800781 39.511719 46.0625 39.675781 C 46.320312 39.835938 46.597656 39.972656 46.882812 40.082031 C 47.171875 40.191406 47.464844 40.273438 47.769531 40.324219 C 48.074219 40.375 48.378906 40.394531 48.683594 40.386719 C 48.992188 40.378906 49.296875 40.339844 49.597656 40.269531 C 49.894531 40.199219 50.1875 40.101562 50.464844 39.976562 C 50.746094 39.851562 51.011719 39.699219 51.261719 39.519531 C 51.511719 39.34375 51.746094 39.140625 51.957031 38.917969 C 52.167969 38.695312 52.355469 38.453125 52.515625 38.191406 C 52.679688 37.929688 52.816406 37.65625 52.925781 37.371094 C 53.035156 37.082031 53.117188 36.785156 53.167969 36.484375 C 53.21875 36.179688 53.238281 35.875 53.230469 35.566406 C 53.222656 35.261719 53.183594 34.957031 53.113281 34.65625 C 53.046875 34.355469 52.949219 34.066406 52.820312 33.785156 C 52.695312 33.507812 52.542969 33.242188 52.367188 32.988281 C 51.382812 31.613281 50.285156 30.335938 49.066406 29.15625 C 47.851562 27.980469 46.539062 26.925781 45.128906 25.988281 C 43.71875 25.054688 42.234375 24.253906 40.675781 23.589844 C 39.121094 22.925781 37.515625 22.40625 35.863281 22.039062 L 43.476562 6.589844 C 43.597656 6.34375 43.695312 6.089844 43.765625 5.824219 C 43.835938 5.5625 43.878906 5.292969 43.898438 5.019531 C 43.917969 4.746094 43.90625 4.476562 43.871094 4.203125 C 43.835938 3.933594 43.773438 3.667969 43.6875 3.40625 C 43.597656 3.148438 43.488281 2.902344 43.351562 2.664062 C 43.214844 2.425781 43.054688 2.207031 42.875 2 C 42.695312 1.792969 42.496094 1.609375 42.277344 1.441406 C 42.0625 1.273438 41.832031 1.128906 41.585938 1.007812 C 41.339844 0.886719 41.085938 0.792969 40.820312 0.722656 C 40.558594 0.652344 40.289062 0.605469 40.015625 0.589844 C 39.742188 0.570312 39.46875 0.578125 39.199219 0.613281 C 38.929688 0.648438 38.664062 0.710938 38.402344 0.800781 C 38.144531 0.886719 37.894531 1 37.660156 1.136719 C 37.421875 1.273438 37.199219 1.433594 36.996094 1.613281 C 36.789062 1.792969 36.601562 1.992188 36.4375 2.207031 C 36.269531 2.425781 36.125 2.65625 36.003906 2.902344 L 25.085938 21.792969 L 24.917969 21.824219 L 28.65625 7.21875 C 28.742188 6.953125 28.804688 6.679688 28.835938 6.402344 C 28.871094 6.125 28.875 5.84375 28.851562 5.566406 C 28.832031 5.289062 28.78125 5.015625 28.703125 4.746094 C 28.625 4.476562 28.519531 4.21875 28.390625 3.972656 C 28.257812 3.722656 28.105469 3.492188 27.929688 3.273438 C 27.75 3.058594 27.554688 2.859375 27.339844 2.683594 C 27.121094 2.507812 26.890625 2.351562 26.640625 2.222656 C 26.394531 2.09375 26.136719 1.988281 25.867188 1.910156 C 25.597656 1.832031 25.324219 1.78125 25.046875 1.757812 C 24.769531 1.734375 24.488281 1.738281 24.210938 1.773438 C 23.933594 1.804688 23.664062 1.867188 23.398438 1.953125 C 23.132812 2.039062 22.875 2.152344 22.632812 2.292969 C 22.390625 2.433594 22.164062 2.59375 21.953125 2.777344 C 21.742188 2.964844 21.554688 3.167969 21.386719 3.390625 C 21.214844 3.613281 21.070312 3.851562 20.949219 4.101562 C 20.828125 4.355469 20.734375 4.617188 20.664062 4.886719 L 13.714844 26.132812 L 13.714844 11.648438 C 13.730469 11.371094 13.71875 11.097656 13.675781 10.820312 C 13.636719 10.546875 13.570312 10.277344 13.476562 10.019531 C 13.382812 9.757812 13.261719 9.507812 13.121094 9.269531 C 12.976562 9.03125 12.8125 8.8125 12.621094 8.605469 C 12.433594 8.402344 12.230469 8.21875 12.003906 8.054688 C 11.78125 7.894531 11.542969 7.753906 11.289062 7.636719 C 11.035156 7.523438 10.777344 7.433594 10.503906 7.371094 C 10.234375 7.304688 9.960938 7.269531 9.683594 7.261719 C 9.40625 7.253906 9.132812 7.273438 8.855469 7.320312 C 8.582031 7.367188 8.316406 7.4375 8.058594 7.539062 C 7.800781 7.640625 7.554688 7.761719 7.320312 7.914062 C 7.085938 8.0625 6.867188 8.230469 6.667969 8.425781 C 6.46875 8.617188 6.289062 8.828125 6.132812 9.054688 C 5.972656 9.285156 5.839844 9.527344 5.730469 9.78125 C 5.621094 10.035156 5.535156 10.296875 5.480469 10.570312 C 5.421875 10.84375 5.394531 11.117188 5.390625 11.394531 L 4.578125 37.847656 C 4.164062 38.785156 3.804688 39.746094 3.496094 40.722656 C 3.191406 41.699219 2.9375 42.691406 2.742188 43.695312 C 2.546875 44.703125 2.40625 45.714844 2.320312 46.738281 C 2.238281 47.757812 2.210938 48.78125 2.242188 49.804688 C 2.269531 50.828125 2.359375 51.847656 2.5 52.863281 C 2.644531 53.878906 2.84375 54.882812 3.097656 55.875 C 3.355469 56.867188 3.664062 57.839844 4.027344 58.800781 C 4.390625 59.757812 4.804688 60.691406 5.273438 61.605469 C 5.742188 62.515625 6.257812 63.398438 6.824219 64.253906 C 7.390625 65.105469 8.003906 65.925781 8.660156 66.714844 C 9.316406 67.5 10.015625 68.246094 10.753906 68.957031 C 11.496094 69.664062 12.273438 70.328125 13.085938 70.949219 C 13.902344 71.574219 14.75 72.148438 15.625 72.675781 C 16.503906 73.203125 17.410156 73.679688 18.339844 74.105469 C 19.273438 74.535156 20.226562 74.910156 21.199219 75.230469 C 22.171875 75.550781 23.160156 75.816406 24.160156 76.027344 C 25.164062 76.238281 26.175781 76.394531 27.195312 76.492188 C 28.214844 76.589844 29.238281 76.632812 30.261719 76.617188 C 31.285156 76.601562 32.308594 76.53125 33.324219 76.402344 C 34.339844 76.273438 35.347656 76.089844 36.34375 75.847656 C 37.339844 75.609375 38.316406 75.3125 39.28125 74.964844 C 40.246094 74.613281 41.183594 74.210938 42.105469 73.757812 C 43.023438 73.304688 43.914062 72.800781 44.773438 72.246094 C 45.636719 71.691406 46.464844 71.09375 47.261719 70.445312 C 48.058594 69.800781 48.816406 69.113281 49.535156 68.382812 C 50.253906 67.652344 50.929688 66.886719 51.5625 66.082031 C 52.195312 65.277344 52.785156 64.4375 53.324219 63.566406 C 53.867188 62.695312 54.355469 61.800781 54.796875 60.875 C 55.238281 59.949219 55.625 59.003906 55.960938 58.035156 C 56.296875 57.066406 56.574219 56.082031 56.800781 55.082031 C 57.027344 54.082031 57.199219 53.074219 57.3125 52.054688 C 57.425781 51.039062 57.480469 50.015625 57.480469 48.992188 C 57.480469 48.464844 57.46875 47.941406 57.4375 47.421875 Z M 57.4375 47.421875 " fill-opacity="1" fill-rule="nonzero"/></g><path fill="#5e17eb" d="M 29.851562 32.242188 C 28.632812 32.246094 27.425781 32.378906 26.238281 32.644531 L 28.417969 36.203125 L 24.113281 58.640625 L 29.855469 63.847656 L 35.597656 58.640625 L 31.292969 36.203125 L 33.472656 32.644531 C 32.28125 32.378906 31.074219 32.246094 29.851562 32.242188 Z M 29.851562 32.242188 " fill-opacity="1" fill-rule="nonzero"/><g fill="#2d3557" fill-opacity="1"><g transform="translate(72.592757, 44.245654)"><g><path d="M 34.078125 0 L 22.6875 0 L 10.953125 -22.640625 L 10.75 -22.640625 C 11.03125 -19.078125 11.171875 -16.359375 11.171875 -14.484375 L 11.171875 0 L 3.46875 0 L 3.46875 -32.140625 L 14.8125 -32.140625 L 26.515625 -9.8125 L 26.65625 -9.8125 C 26.445312 -13.050781 26.34375 -15.648438 26.34375 -17.609375 L 26.34375 -32.140625 L 34.078125 -32.140625 Z M 34.078125 0 "/></g></g></g><g fill="#2d3557" fill-opacity="1"><g transform="translate(110.151371, 44.245654)"><g><path d="M 11.609375 0 L 3.015625 0 L 3.015625 -24.90625 L 11.609375 -24.90625 Z M 2.796875 -31.109375 C 2.796875 -32.398438 3.15625 -33.359375 3.875 -33.984375 C 4.59375 -34.617188 5.75 -34.9375 7.34375 -34.9375 C 8.9375 -34.9375 10.097656 -34.613281 10.828125 -33.96875 C 11.566406 -33.320312 11.9375 -32.367188 11.9375 -31.109375 C 11.9375 -28.585938 10.40625 -27.328125 7.34375 -27.328125 C 4.3125 -27.328125 2.796875 -28.585938 2.796875 -31.109375 Z M 2.796875 -31.109375 "/></g></g></g><g fill="#2d3557" fill-opacity="1"><g transform="translate(124.796592, 44.245654)"><g><path d="M 14.3125 0.4375 C 10.238281 0.4375 7.148438 -0.660156 5.046875 -2.859375 C 2.941406 -5.054688 1.890625 -8.210938 1.890625 -12.328125 C 1.890625 -16.460938 3.023438 -19.664062 5.296875 -21.9375 C 7.566406 -24.21875 10.800781 -25.359375 15 -25.359375 C 17.882812 -25.359375 20.601562 -24.726562 23.15625 -23.46875 L 20.625 -17.109375 C 19.582031 -17.554688 18.617188 -17.914062 17.734375 -18.1875 C 16.859375 -18.46875 15.945312 -18.609375 15 -18.609375 C 13.601562 -18.609375 12.523438 -18.0625 11.765625 -16.96875 C 11.003906 -15.882812 10.625 -14.351562 10.625 -12.375 C 10.625 -8.394531 12.097656 -6.40625 15.046875 -6.40625 C 17.566406 -6.40625 19.984375 -7.132812 22.296875 -8.59375 L 22.296875 -1.765625 C 20.078125 -0.296875 17.414062 0.4375 14.3125 0.4375 Z M 14.3125 0.4375 "/></g></g></g><g fill="#2d3557" fill-opacity="1"><g transform="translate(149.073354, 44.245654)"><g><path d="M 15 0.4375 C 10.84375 0.4375 7.617188 -0.660156 5.328125 -2.859375 C 3.035156 -5.066406 1.890625 -8.210938 1.890625 -12.296875 C 1.890625 -16.503906 2.953125 -19.734375 5.078125 -21.984375 C 7.203125 -24.234375 10.238281 -25.359375 14.1875 -25.359375 C 17.9375 -25.359375 20.832031 -24.378906 22.875 -22.421875 C 24.925781 -20.460938 25.953125 -17.644531 25.953125 -13.96875 L 25.953125 -10.140625 L 10.578125 -10.140625 C 10.640625 -8.742188 11.148438 -7.648438 12.109375 -6.859375 C 13.066406 -6.066406 14.375 -5.671875 16.03125 -5.671875 C 17.539062 -5.671875 18.925781 -5.8125 20.1875 -6.09375 C 21.457031 -6.382812 22.832031 -6.875 24.3125 -7.5625 L 24.3125 -1.390625 C 22.96875 -0.703125 21.578125 -0.226562 20.140625 0.03125 C 18.703125 0.300781 16.988281 0.4375 15 0.4375 Z M 14.484375 -19.5 C 13.472656 -19.5 12.625 -19.179688 11.9375 -18.546875 C 11.257812 -17.910156 10.863281 -16.910156 10.75 -15.546875 L 18.140625 -15.546875 C 18.109375 -16.742188 17.765625 -17.703125 17.109375 -18.421875 C 16.460938 -19.140625 15.585938 -19.5 14.484375 -19.5 Z M 14.484375 -19.5 "/></g></g></g><g fill="#2d3557" fill-opacity="1"><g transform="translate(176.912468, 44.245654)"><g><path d="M 0.953125 10.09375 C -0.628906 10.09375 -2.132812 9.9375 -3.5625 9.625 L -3.5625 2.875 C -3.09375 2.96875 -2.59375 3.066406 -2.0625 3.171875 C -1.539062 3.285156 -0.972656 3.34375 -0.359375 3.34375 C 1.078125 3.34375 2.101562 2.910156 2.71875 2.046875 C 3.34375 1.179688 3.65625 -0.296875 3.65625 -2.390625 L 3.65625 -32.140625 L 12.375 -32.140625 L 12.375 -3.140625 C 12.375 1.210938 11.421875 4.503906 9.515625 6.734375 C 7.609375 8.972656 4.753906 10.09375 0.953125 10.09375 Z M 0.953125 10.09375 "/></g></g></g><g fill="#2d3557" fill-opacity="1"><g transform="translate(192.767134, 44.245654)"><g><path d="M 26.765625 -12.515625 C 26.765625 -8.441406 25.664062 -5.265625 23.46875 -2.984375 C 21.28125 -0.703125 18.210938 0.4375 14.265625 0.4375 C 10.484375 0.4375 7.472656 -0.722656 5.234375 -3.046875 C 3.003906 -5.378906 1.890625 -8.535156 1.890625 -12.515625 C 1.890625 -16.578125 2.984375 -19.734375 5.171875 -21.984375 C 7.367188 -24.234375 10.445312 -25.359375 14.40625 -25.359375 C 16.851562 -25.359375 19.015625 -24.835938 20.890625 -23.796875 C 22.765625 -22.753906 24.210938 -21.257812 25.234375 -19.3125 C 26.253906 -17.375 26.765625 -15.109375 26.765625 -12.515625 Z M 10.625 -12.515625 C 10.625 -10.367188 10.90625 -8.734375 11.46875 -7.609375 C 12.039062 -6.492188 13.003906 -5.9375 14.359375 -5.9375 C 15.691406 -5.9375 16.632812 -6.492188 17.1875 -7.609375 C 17.738281 -8.734375 18.015625 -10.367188 18.015625 -12.515625 C 18.015625 -14.640625 17.734375 -16.242188 17.171875 -17.328125 C 16.617188 -18.410156 15.664062 -18.953125 14.3125 -18.953125 C 12.988281 -18.953125 12.039062 -18.410156 11.46875 -17.328125 C 10.90625 -16.253906 10.625 -14.648438 10.625 -12.515625 Z M 10.625 -12.515625 "/></g></g></g><g fill="#2d3557" fill-opacity="1"><g transform="translate(221.463857, 44.245654)"><g><path d="M 18.1875 -25.359375 C 20.894531 -25.359375 23.039062 -24.21875 24.625 -21.9375 C 26.21875 -19.664062 27.015625 -16.523438 27.015625 -12.515625 C 27.015625 -8.460938 26.210938 -5.289062 24.609375 -3 C 23.003906 -0.707031 20.773438 0.4375 17.921875 0.4375 C 16.992188 0.4375 16.171875 0.335938 15.453125 0.140625 C 14.734375 -0.0546875 14.09375 -0.328125 13.53125 -0.671875 C 12.96875 -1.023438 12.3125 -1.613281 11.5625 -2.4375 L 11.03125 -2.4375 L 9.671875 0 L 2.96875 0 L 2.96875 -34.21875 L 11.5625 -34.21875 L 11.5625 -26.46875 C 11.5625 -25.550781 11.460938 -23.960938 11.265625 -21.703125 L 11.5625 -21.703125 C 12.394531 -22.992188 13.359375 -23.925781 14.453125 -24.5 C 15.546875 -25.070312 16.789062 -25.359375 18.1875 -25.359375 Z M 15.046875 -18.609375 C 13.835938 -18.609375 12.953125 -18.1875 12.390625 -17.34375 C 11.835938 -16.507812 11.5625 -15.195312 11.5625 -13.40625 L 11.5625 -12.203125 C 11.5625 -10.160156 11.835938 -8.695312 12.390625 -7.8125 C 12.953125 -6.925781 13.863281 -6.484375 15.125 -6.484375 C 16.132812 -6.484375 16.910156 -7 17.453125 -8.03125 C 17.992188 -9.070312 18.265625 -10.59375 18.265625 -12.59375 C 18.265625 -16.601562 17.191406 -18.609375 15.046875 -18.609375 Z M 15.046875 -18.609375 "/></g></g></g><g fill="#5e17eb" fill-opacity="1"><g transform="translate(82.821044, 66.303197)"><g><path d="M 7.359375 0 L 6.765625 0 L 1.75 -7.53125 L 1.703125 -7.53125 C 1.742188 -6.632812 1.765625 -5.957031 1.765625 -5.5 L 1.765625 0 L 1.203125 0 L 1.203125 -8.484375 L 1.796875 -8.484375 L 6.8125 -0.96875 L 6.84375 -0.96875 C 6.8125 -1.65625 6.796875 -2.316406 6.796875 -2.953125 L 6.796875 -8.484375 L 7.359375 -8.484375 Z M 7.359375 0 "/></g></g></g><g fill="#5e17eb" fill-opacity="1"><g transform="translate(91.38238, 66.303197)"><g><path d="M 1.546875 -6.296875 L 1.546875 -2.21875 C 1.546875 -1.582031 1.679688 -1.117188 1.953125 -0.828125 C 2.222656 -0.546875 2.632812 -0.40625 3.1875 -0.40625 C 3.9375 -0.40625 4.488281 -0.59375 4.84375 -0.96875 C 5.195312 -1.351562 5.375 -1.972656 5.375 -2.828125 L 5.375 -6.296875 L 5.953125 -6.296875 L 5.953125 0 L 5.46875 0 L 5.359375 -0.875 L 5.328125 -0.875 C 4.910156 -0.21875 4.179688 0.109375 3.140625 0.109375 C 1.703125 0.109375 0.984375 -0.65625 0.984375 -2.1875 L 0.984375 -6.296875 Z M 1.546875 -6.296875 "/></g></g></g><g fill="#5e17eb" fill-opacity="1"><g transform="translate(98.38447, 66.303197)"><g><path d="M 8.921875 0 L 8.921875 -4.140625 C 8.921875 -4.753906 8.800781 -5.203125 8.5625 -5.484375 C 8.320312 -5.765625 7.957031 -5.90625 7.46875 -5.90625 C 6.820312 -5.90625 6.34375 -5.722656 6.03125 -5.359375 C 5.726562 -5.003906 5.578125 -4.445312 5.578125 -3.6875 L 5.578125 0 L 4.984375 0 L 4.984375 -4.3125 C 4.984375 -5.375 4.5 -5.90625 3.53125 -5.90625 C 2.863281 -5.90625 2.378906 -5.710938 2.078125 -5.328125 C 1.773438 -4.941406 1.625 -4.328125 1.625 -3.484375 L 1.625 0 L 1.0625 0 L 1.0625 -6.296875 L 1.53125 -6.296875 L 1.65625 -5.4375 L 1.6875 -5.4375 C 1.863281 -5.75 2.109375 -5.988281 2.421875 -6.15625 C 2.742188 -6.332031 3.097656 -6.421875 3.484375 -6.421875 C 4.484375 -6.421875 5.125 -6.050781 5.40625 -5.3125 L 5.421875 -5.3125 C 5.628906 -5.664062 5.90625 -5.9375 6.25 -6.125 C 6.59375 -6.320312 6.988281 -6.421875 7.4375 -6.421875 C 8.125 -6.421875 8.640625 -6.238281 8.984375 -5.875 C 9.328125 -5.507812 9.5 -4.925781 9.5 -4.125 L 9.5 0 Z M 8.921875 0 "/></g></g></g><g fill="#5e17eb" fill-opacity="1"><g transform="translate(108.86442, 66.303197)"><g><path d="M 3.71875 -6.421875 C 4.59375 -6.421875 5.253906 -6.144531 5.703125 -5.59375 C 6.148438 -5.039062 6.375 -4.226562 6.375 -3.15625 C 6.375 -2.113281 6.140625 -1.304688 5.671875 -0.734375 C 5.203125 -0.171875 4.539062 0.109375 3.6875 0.109375 C 3.238281 0.109375 2.832031 0.0195312 2.46875 -0.15625 C 2.113281 -0.34375 1.832031 -0.609375 1.625 -0.953125 L 1.578125 -0.953125 L 1.421875 0 L 1.0625 0 L 1.0625 -9.015625 L 1.625 -9.015625 L 1.625 -6.75 C 1.625 -6.414062 1.617188 -6.101562 1.609375 -5.8125 L 1.59375 -5.328125 L 1.625 -5.328125 C 1.863281 -5.703125 2.148438 -5.976562 2.484375 -6.15625 C 2.828125 -6.332031 3.238281 -6.421875 3.71875 -6.421875 Z M 3.703125 -5.90625 C 2.960938 -5.90625 2.429688 -5.691406 2.109375 -5.265625 C 1.785156 -4.835938 1.625 -4.132812 1.625 -3.15625 L 1.625 -3.0625 C 1.625 -2.113281 1.789062 -1.429688 2.125 -1.015625 C 2.457031 -0.597656 2.976562 -0.390625 3.6875 -0.390625 C 4.375 -0.390625 4.890625 -0.628906 5.234375 -1.109375 C 5.585938 -1.597656 5.765625 -2.285156 5.765625 -3.171875 C 5.765625 -4.992188 5.078125 -5.90625 3.703125 -5.90625 Z M 3.703125 -5.90625 "/></g></g></g><g fill="#5e17eb" fill-opacity="1"><g transform="translate(115.930276, 66.303197)"><g><path d="M 3.59375 0.109375 C 2.6875 0.109375 1.972656 -0.171875 1.453125 -0.734375 C 0.941406 -1.296875 0.6875 -2.085938 0.6875 -3.109375 C 0.6875 -4.109375 0.929688 -4.910156 1.421875 -5.515625 C 1.921875 -6.117188 2.59375 -6.421875 3.4375 -6.421875 C 4.175781 -6.421875 4.757812 -6.160156 5.1875 -5.640625 C 5.613281 -5.128906 5.828125 -4.425781 5.828125 -3.53125 L 5.828125 -3.078125 L 1.296875 -3.078125 C 1.296875 -2.210938 1.492188 -1.550781 1.890625 -1.09375 C 2.296875 -0.632812 2.863281 -0.40625 3.59375 -0.40625 C 3.957031 -0.40625 4.273438 -0.429688 4.546875 -0.484375 C 4.816406 -0.535156 5.160156 -0.644531 5.578125 -0.8125 L 5.578125 -0.28125 C 5.222656 -0.125 4.894531 -0.0195312 4.59375 0.03125 C 4.289062 0.0820312 3.957031 0.109375 3.59375 0.109375 Z M 3.4375 -5.921875 C 2.820312 -5.921875 2.332031 -5.71875 1.96875 -5.3125 C 1.601562 -4.914062 1.390625 -4.335938 1.328125 -3.578125 L 5.21875 -3.578125 C 5.21875 -4.304688 5.054688 -4.878906 4.734375 -5.296875 C 4.421875 -5.710938 3.988281 -5.921875 3.4375 -5.921875 Z M 3.4375 -5.921875 "/></g></g></g><g fill="#5e17eb" fill-opacity="1"><g transform="translate(122.445466, 66.303197)"><g><path d="M 3.53125 -6.421875 C 3.800781 -6.421875 4.085938 -6.394531 4.390625 -6.34375 L 4.28125 -5.796875 C 4.019531 -5.859375 3.75 -5.890625 3.46875 -5.890625 C 2.925781 -5.890625 2.484375 -5.660156 2.140625 -5.203125 C 1.796875 -4.742188 1.625 -4.171875 1.625 -3.484375 L 1.625 0 L 1.0625 0 L 1.0625 -6.296875 L 1.546875 -6.296875 L 1.59375 -5.171875 L 1.640625 -5.171875 C 1.898438 -5.628906 2.175781 -5.953125 2.46875 -6.140625 C 2.757812 -6.328125 3.113281 -6.421875 3.53125 -6.421875 Z M 3.53125 -6.421875 "/></g></g></g><g fill="#5e17eb" fill-opacity="1"><g transform="translate(127.065228, 66.303197)"><g/></g></g><g fill="#5e17eb" fill-opacity="1"><g transform="translate(130.14893, 66.303197)"><g><path d="M 6.265625 -3.15625 C 6.265625 -2.132812 6.015625 -1.332031 5.515625 -0.75 C 5.015625 -0.175781 4.328125 0.109375 3.453125 0.109375 C 2.898438 0.109375 2.410156 -0.0195312 1.984375 -0.28125 C 1.566406 -0.550781 1.242188 -0.9375 1.015625 -1.4375 C 0.796875 -1.9375 0.6875 -2.507812 0.6875 -3.15625 C 0.6875 -4.1875 0.9375 -4.988281 1.4375 -5.5625 C 1.9375 -6.132812 2.617188 -6.421875 3.484375 -6.421875 C 4.359375 -6.421875 5.039062 -6.128906 5.53125 -5.546875 C 6.019531 -4.960938 6.265625 -4.164062 6.265625 -3.15625 Z M 1.296875 -3.15625 C 1.296875 -2.289062 1.484375 -1.613281 1.859375 -1.125 C 2.242188 -0.644531 2.785156 -0.40625 3.484375 -0.40625 C 4.171875 -0.40625 4.707031 -0.644531 5.09375 -1.125 C 5.476562 -1.613281 5.671875 -2.289062 5.671875 -3.15625 C 5.671875 -4.03125 5.476562 -4.707031 5.09375 -5.1875 C 4.707031 -5.664062 4.164062 -5.90625 3.46875 -5.90625 C 2.769531 -5.90625 2.234375 -5.664062 1.859375 -5.1875 C 1.484375 -4.707031 1.296875 -4.03125 1.296875 -3.15625 Z M 1.296875 -3.15625 "/></g></g></g><g fill="#5e17eb" fill-opacity="1"><g transform="translate(137.104648, 66.303197)"><g><path d="M 5.453125 0 L 5.453125 -4.09375 C 5.453125 -4.71875 5.316406 -5.175781 5.046875 -5.46875 C 4.785156 -5.757812 4.375 -5.90625 3.8125 -5.90625 C 3.050781 -5.90625 2.492188 -5.710938 2.140625 -5.328125 C 1.796875 -4.953125 1.625 -4.335938 1.625 -3.484375 L 1.625 0 L 1.0625 0 L 1.0625 -6.296875 L 1.546875 -6.296875 L 1.65625 -5.4375 L 1.6875 -5.4375 C 2.09375 -6.09375 2.820312 -6.421875 3.875 -6.421875 C 5.300781 -6.421875 6.015625 -5.65625 6.015625 -4.125 L 6.015625 0 Z M 5.453125 0 "/></g></g></g><g fill="#5e17eb" fill-opacity="1"><g transform="translate(144.106738, 66.303197)"><g><path d="M 3.59375 0.109375 C 2.6875 0.109375 1.972656 -0.171875 1.453125 -0.734375 C 0.941406 -1.296875 0.6875 -2.085938 0.6875 -3.109375 C 0.6875 -4.109375 0.929688 -4.910156 1.421875 -5.515625 C 1.921875 -6.117188 2.59375 -6.421875 3.4375 -6.421875 C 4.175781 -6.421875 4.757812 -6.160156 5.1875 -5.640625 C 5.613281 -5.128906 5.828125 -4.425781 5.828125 -3.53125 L 5.828125 -3.078125 L 1.296875 -3.078125 C 1.296875 -2.210938 1.492188 -1.550781 1.890625 -1.09375 C 2.296875 -0.632812 2.863281 -0.40625 3.59375 -0.40625 C 3.957031 -0.40625 4.273438 -0.429688 4.546875 -0.484375 C 4.816406 -0.535156 5.160156 -0.644531 5.578125 -0.8125 L 5.578125 -0.28125 C 5.222656 -0.125 4.894531 -0.0195312 4.59375 0.03125 C 4.289062 0.0820312 3.957031 0.109375 3.59375 0.109375 Z M 3.4375 -5.921875 C 2.820312 -5.921875 2.332031 -5.71875 1.96875 -5.3125 C 1.601562 -4.914062 1.390625 -4.335938 1.328125 -3.578125 L 5.21875 -3.578125 C 5.21875 -4.304688 5.054688 -4.878906 4.734375 -5.296875 C 4.421875 -5.710938 3.988281 -5.921875 3.4375 -5.921875 Z M 3.4375 -5.921875 "/></g></g></g><g fill="#5e17eb" fill-opacity="1"><g transform="translate(150.621928, 66.303197)"><g/></g></g><g fill="#5e17eb" fill-opacity="1"><g transform="translate(153.70563, 66.303197)"><g><path d="M 6.265625 -3.15625 C 6.265625 -2.132812 6.015625 -1.332031 5.515625 -0.75 C 5.015625 -0.175781 4.328125 0.109375 3.453125 0.109375 C 2.898438 0.109375 2.410156 -0.0195312 1.984375 -0.28125 C 1.566406 -0.550781 1.242188 -0.9375 1.015625 -1.4375 C 0.796875 -1.9375 0.6875 -2.507812 0.6875 -3.15625 C 0.6875 -4.1875 0.9375 -4.988281 1.4375 -5.5625 C 1.9375 -6.132812 2.617188 -6.421875 3.484375 -6.421875 C 4.359375 -6.421875 5.039062 -6.128906 5.53125 -5.546875 C 6.019531 -4.960938 6.265625 -4.164062 6.265625 -3.15625 Z M 1.296875 -3.15625 C 1.296875 -2.289062 1.484375 -1.613281 1.859375 -1.125 C 2.242188 -0.644531 2.785156 -0.40625 3.484375 -0.40625 C 4.171875 -0.40625 4.707031 -0.644531 5.09375 -1.125 C 5.476562 -1.613281 5.671875 -2.289062 5.671875 -3.15625 C 5.671875 -4.03125 5.476562 -4.707031 5.09375 -5.1875 C 4.707031 -5.664062 4.164062 -5.90625 3.46875 -5.90625 C 2.769531 -5.90625 2.234375 -5.664062 1.859375 -5.1875 C 1.484375 -4.707031 1.296875 -4.03125 1.296875 -3.15625 Z M 1.296875 -3.15625 "/></g></g></g><g fill="#5e17eb" fill-opacity="1"><g transform="translate(160.661348, 66.303197)"><g><path d="M 5.453125 0 L 5.453125 -4.09375 C 5.453125 -4.71875 5.316406 -5.175781 5.046875 -5.46875 C 4.785156 -5.757812 4.375 -5.90625 3.8125 -5.90625 C 3.050781 -5.90625 2.492188 -5.710938 2.140625 -5.328125 C 1.796875 -4.953125 1.625 -4.335938 1.625 -3.484375 L 1.625 0 L 1.0625 0 L 1.0625 -6.296875 L 1.546875 -6.296875 L 1.65625 -5.4375 L 1.6875 -5.4375 C 2.09375 -6.09375 2.820312 -6.421875 3.875 -6.421875 C 5.300781 -6.421875 6.015625 -5.65625 6.015625 -4.125 L 6.015625 0 Z M 5.453125 0 "/></g></g></g><g fill="#5e17eb" fill-opacity="1"><g transform="translate(167.663438, 66.303197)"><g><path d="M 1.625 0 L 1.0625 0 L 1.0625 -9.015625 L 1.625 -9.015625 Z M 1.625 0 "/></g></g></g><g fill="#5e17eb" fill-opacity="1"><g transform="translate(170.347192, 66.303197)"><g><path d="M 1.625 0 L 1.0625 0 L 1.0625 -6.296875 L 1.625 -6.296875 Z M 0.96875 -8.046875 C 0.96875 -8.421875 1.09375 -8.609375 1.34375 -8.609375 C 1.457031 -8.609375 1.546875 -8.5625 1.609375 -8.46875 C 1.679688 -8.375 1.71875 -8.234375 1.71875 -8.046875 C 1.71875 -7.878906 1.679688 -7.742188 1.609375 -7.640625 C 1.546875 -7.535156 1.457031 -7.484375 1.34375 -7.484375 C 1.09375 -7.484375 0.96875 -7.671875 0.96875 -8.046875 Z M 0.96875 -8.046875 "/></g></g></g><g fill="#5e17eb" fill-opacity="1"><g transform="translate(173.030946, 66.303197)"><g><path d="M 5.453125 0 L 5.453125 -4.09375 C 5.453125 -4.71875 5.316406 -5.175781 5.046875 -5.46875 C 4.785156 -5.757812 4.375 -5.90625 3.8125 -5.90625 C 3.050781 -5.90625 2.492188 -5.710938 2.140625 -5.328125 C 1.796875 -4.953125 1.625 -4.335938 1.625 -3.484375 L 1.625 0 L 1.0625 0 L 1.0625 -6.296875 L 1.546875 -6.296875 L 1.65625 -5.4375 L 1.6875 -5.4375 C 2.09375 -6.09375 2.820312 -6.421875 3.875 -6.421875 C 5.300781 -6.421875 6.015625 -5.65625 6.015625 -4.125 L 6.015625 0 Z M 5.453125 0 "/></g></g></g><g fill="#5e17eb" fill-opacity="1"><g transform="translate(180.033036, 66.303197)"><g><path d="M 3.59375 0.109375 C 2.6875 0.109375 1.972656 -0.171875 1.453125 -0.734375 C 0.941406 -1.296875 0.6875 -2.085938 0.6875 -3.109375 C 0.6875 -4.109375 0.929688 -4.910156 1.421875 -5.515625 C 1.921875 -6.117188 2.59375 -6.421875 3.4375 -6.421875 C 4.175781 -6.421875 4.757812 -6.160156 5.1875 -5.640625 C 5.613281 -5.128906 5.828125 -4.425781 5.828125 -3.53125 L 5.828125 -3.078125 L 1.296875 -3.078125 C 1.296875 -2.210938 1.492188 -1.550781 1.890625 -1.09375 C 2.296875 -0.632812 2.863281 -0.40625 3.59375 -0.40625 C 3.957031 -0.40625 4.273438 -0.429688 4.546875 -0.484375 C 4.816406 -0.535156 5.160156 -0.644531 5.578125 -0.8125 L 5.578125 -0.28125 C 5.222656 -0.125 4.894531 -0.0195312 4.59375 0.03125 C 4.289062 0.0820312 3.957031 0.109375 3.59375 0.109375 Z M 3.4375 -5.921875 C 2.820312 -5.921875 2.332031 -5.71875 1.96875 -5.3125 C 1.601562 -4.914062 1.390625 -4.335938 1.328125 -3.578125 L 5.21875 -3.578125 C 5.21875 -4.304688 5.054688 -4.878906 4.734375 -5.296875 C 4.421875 -5.710938 3.988281 -5.921875 3.4375 -5.921875 Z M 3.4375 -5.921875 "/></g></g></g><g fill="#5e17eb" fill-opacity="1"><g transform="translate(186.548226, 66.303197)"><g/></g></g><g fill="#5e17eb" fill-opacity="1"><g transform="translate(189.631928, 66.303197)"><g><path d="M 0.21875 2.859375 C -0.09375 2.859375 -0.351562 2.804688 -0.5625 2.703125 L -0.5625 2.203125 C -0.300781 2.285156 -0.0507812 2.328125 0.1875 2.328125 C 0.769531 2.328125 1.0625 1.984375 1.0625 1.296875 L 1.0625 -6.296875 L 1.625 -6.296875 L 1.625 1.21875 C 1.625 1.738281 1.5 2.140625 1.25 2.421875 C 1.007812 2.710938 0.664062 2.859375 0.21875 2.859375 Z M 0.96875 -8.046875 C 0.96875 -8.421875 1.09375 -8.609375 1.34375 -8.609375 C 1.457031 -8.609375 1.546875 -8.5625 1.609375 -8.46875 C 1.679688 -8.375 1.71875 -8.234375 1.71875 -8.046875 C 1.71875 -7.878906 1.679688 -7.742188 1.609375 -7.640625 C 1.546875 -7.535156 1.457031 -7.484375 1.34375 -7.484375 C 1.09375 -7.484375 0.96875 -7.671875 0.96875 -8.046875 Z M 0.96875 -8.046875 "/></g></g></g><g fill="#5e17eb" fill-opacity="1"><g transform="translate(192.315681, 66.303197)"><g><path d="M 6.265625 -3.15625 C 6.265625 -2.132812 6.015625 -1.332031 5.515625 -0.75 C 5.015625 -0.175781 4.328125 0.109375 3.453125 0.109375 C 2.898438 0.109375 2.410156 -0.0195312 1.984375 -0.28125 C 1.566406 -0.550781 1.242188 -0.9375 1.015625 -1.4375 C 0.796875 -1.9375 0.6875 -2.507812 0.6875 -3.15625 C 0.6875 -4.1875 0.9375 -4.988281 1.4375 -5.5625 C 1.9375 -6.132812 2.617188 -6.421875 3.484375 -6.421875 C 4.359375 -6.421875 5.039062 -6.128906 5.53125 -5.546875 C 6.019531 -4.960938 6.265625 -4.164062 6.265625 -3.15625 Z M 1.296875 -3.15625 C 1.296875 -2.289062 1.484375 -1.613281 1.859375 -1.125 C 2.242188 -0.644531 2.785156 -0.40625 3.484375 -0.40625 C 4.171875 -0.40625 4.707031 -0.644531 5.09375 -1.125 C 5.476562 -1.613281 5.671875 -2.289062 5.671875 -3.15625 C 5.671875 -4.03125 5.476562 -4.707031 5.09375 -5.1875 C 4.707031 -5.664062 4.164062 -5.90625 3.46875 -5.90625 C 2.769531 -5.90625 2.234375 -5.664062 1.859375 -5.1875 C 1.484375 -4.707031 1.296875 -4.03125 1.296875 -3.15625 Z M 1.296875 -3.15625 "/></g></g></g><g fill="#5e17eb" fill-opacity="1"><g transform="translate(199.2714, 66.303197)"><g><path d="M 3.71875 -6.421875 C 4.59375 -6.421875 5.253906 -6.144531 5.703125 -5.59375 C 6.148438 -5.039062 6.375 -4.226562 6.375 -3.15625 C 6.375 -2.113281 6.140625 -1.304688 5.671875 -0.734375 C 5.203125 -0.171875 4.539062 0.109375 3.6875 0.109375 C 3.238281 0.109375 2.832031 0.0195312 2.46875 -0.15625 C 2.113281 -0.34375 1.832031 -0.609375 1.625 -0.953125 L 1.578125 -0.953125 L 1.421875 0 L 1.0625 0 L 1.0625 -9.015625 L 1.625 -9.015625 L 1.625 -6.75 C 1.625 -6.414062 1.617188 -6.101562 1.609375 -5.8125 L 1.59375 -5.328125 L 1.625 -5.328125 C 1.863281 -5.703125 2.148438 -5.976562 2.484375 -6.15625 C 2.828125 -6.332031 3.238281 -6.421875 3.71875 -6.421875 Z M 3.703125 -5.90625 C 2.960938 -5.90625 2.429688 -5.691406 2.109375 -5.265625 C 1.785156 -4.835938 1.625 -4.132812 1.625 -3.15625 L 1.625 -3.0625 C 1.625 -2.113281 1.789062 -1.429688 2.125 -1.015625 C 2.457031 -0.597656 2.976562 -0.390625 3.6875 -0.390625 C 4.375 -0.390625 4.890625 -0.628906 5.234375 -1.109375 C 5.585938 -1.597656 5.765625 -2.285156 5.765625 -3.171875 C 5.765625 -4.992188 5.078125 -5.90625 3.703125 -5.90625 Z M 3.703125 -5.90625 "/></g></g></g><g fill="#5e17eb" fill-opacity="1"><g transform="translate(206.337256, 66.303197)"><g/></g></g><g fill="#5e17eb" fill-opacity="1"><g transform="translate(209.420958, 66.303197)"><g><path d="M 1.625 0 L 1.0625 0 L 1.0625 -9.015625 L 1.625 -9.015625 Z M 1.625 0 "/></g></g></g><g fill="#5e17eb" fill-opacity="1"><g transform="translate(212.104712, 66.303197)"><g><path d="M 1.625 0 L 1.0625 0 L 1.0625 -6.296875 L 1.625 -6.296875 Z M 0.96875 -8.046875 C 0.96875 -8.421875 1.09375 -8.609375 1.34375 -8.609375 C 1.457031 -8.609375 1.546875 -8.5625 1.609375 -8.46875 C 1.679688 -8.375 1.71875 -8.234375 1.71875 -8.046875 C 1.71875 -7.878906 1.679688 -7.742188 1.609375 -7.640625 C 1.546875 -7.535156 1.457031 -7.484375 1.34375 -7.484375 C 1.09375 -7.484375 0.96875 -7.671875 0.96875 -8.046875 Z M 0.96875 -8.046875 "/></g></g></g><g fill="#5e17eb" fill-opacity="1"><g transform="translate(214.788466, 66.303197)"><g><path d="M 4.96875 -1.640625 C 4.96875 -1.078125 4.75 -0.644531 4.3125 -0.34375 C 3.882812 -0.0390625 3.28125 0.109375 2.5 0.109375 C 1.65625 0.109375 0.984375 -0.015625 0.484375 -0.265625 L 0.484375 -0.890625 C 1.117188 -0.578125 1.789062 -0.421875 2.5 -0.421875 C 3.113281 -0.421875 3.582031 -0.519531 3.90625 -0.71875 C 4.226562 -0.925781 4.390625 -1.203125 4.390625 -1.546875 C 4.390625 -1.867188 4.257812 -2.132812 4 -2.34375 C 3.75 -2.5625 3.332031 -2.773438 2.75 -2.984375 C 2.113281 -3.210938 1.664062 -3.410156 1.40625 -3.578125 C 1.15625 -3.742188 0.960938 -3.929688 0.828125 -4.140625 C 0.703125 -4.347656 0.640625 -4.597656 0.640625 -4.890625 C 0.640625 -5.359375 0.835938 -5.726562 1.234375 -6 C 1.628906 -6.28125 2.1875 -6.421875 2.90625 -6.421875 C 3.582031 -6.421875 4.222656 -6.296875 4.828125 -6.046875 L 4.625 -5.515625 C 4 -5.773438 3.425781 -5.90625 2.90625 -5.90625 C 2.382812 -5.90625 1.972656 -5.816406 1.671875 -5.640625 C 1.367188 -5.472656 1.21875 -5.238281 1.21875 -4.9375 C 1.21875 -4.613281 1.332031 -4.351562 1.5625 -4.15625 C 1.800781 -3.957031 2.265625 -3.734375 2.953125 -3.484375 C 3.515625 -3.285156 3.925781 -3.101562 4.1875 -2.9375 C 4.445312 -2.769531 4.640625 -2.582031 4.765625 -2.375 C 4.898438 -2.164062 4.96875 -1.921875 4.96875 -1.640625 Z M 4.96875 -1.640625 "/></g></g></g><g fill="#5e17eb" fill-opacity="1"><g transform="translate(220.318262, 66.303197)"><g><path d="M 2.71875 -0.390625 C 3.082031 -0.390625 3.398438 -0.421875 3.671875 -0.484375 L 3.671875 -0.015625 C 3.390625 0.0664062 3.066406 0.109375 2.703125 0.109375 C 2.148438 0.109375 1.738281 -0.0351562 1.46875 -0.328125 C 1.207031 -0.628906 1.078125 -1.097656 1.078125 -1.734375 L 1.078125 -5.796875 L 0.140625 -5.796875 L 0.140625 -6.140625 L 1.078125 -6.40625 L 1.375 -7.828125 L 1.671875 -7.828125 L 1.671875 -6.296875 L 3.515625 -6.296875 L 3.515625 -5.796875 L 1.671875 -5.796875 L 1.671875 -1.8125 C 1.671875 -1.332031 1.753906 -0.972656 1.921875 -0.734375 C 2.085938 -0.503906 2.351562 -0.390625 2.71875 -0.390625 Z M 2.71875 -0.390625 "/></g></g></g><g fill="#5e17eb" fill-opacity="1"><g transform="translate(224.294615, 66.303197)"><g><path d="M 1.625 0 L 1.0625 0 L 1.0625 -6.296875 L 1.625 -6.296875 Z M 0.96875 -8.046875 C 0.96875 -8.421875 1.09375 -8.609375 1.34375 -8.609375 C 1.457031 -8.609375 1.546875 -8.5625 1.609375 -8.46875 C 1.679688 -8.375 1.71875 -8.234375 1.71875 -8.046875 C 1.71875 -7.878906 1.679688 -7.742188 1.609375 -7.640625 C 1.546875 -7.535156 1.457031 -7.484375 1.34375 -7.484375 C 1.09375 -7.484375 0.96875 -7.671875 0.96875 -8.046875 Z M 0.96875 -8.046875 "/></g></g></g><g fill="#5e17eb" fill-opacity="1"><g transform="translate(226.978368, 66.303197)"><g><path d="M 5.453125 0 L 5.453125 -4.09375 C 5.453125 -4.71875 5.316406 -5.175781 5.046875 -5.46875 C 4.785156 -5.757812 4.375 -5.90625 3.8125 -5.90625 C 3.050781 -5.90625 2.492188 -5.710938 2.140625 -5.328125 C 1.796875 -4.953125 1.625 -4.335938 1.625 -3.484375 L 1.625 0 L 1.0625 0 L 1.0625 -6.296875 L 1.546875 -6.296875 L 1.65625 -5.4375 L 1.6875 -5.4375 C 2.09375 -6.09375 2.820312 -6.421875 3.875 -6.421875 C 5.300781 -6.421875 6.015625 -5.65625 6.015625 -4.125 L 6.015625 0 Z M 5.453125 0 "/></g></g></g><g fill="#5e17eb" fill-opacity="1"><g transform="translate(233.980458, 66.303197)"><g><path d="M 5.96875 -6.296875 L 5.96875 -5.90625 L 4.671875 -5.828125 C 5.015625 -5.390625 5.1875 -4.910156 5.1875 -4.390625 C 5.1875 -3.785156 4.984375 -3.296875 4.578125 -2.921875 C 4.179688 -2.546875 3.640625 -2.359375 2.953125 -2.359375 C 2.671875 -2.359375 2.472656 -2.367188 2.359375 -2.390625 C 2.128906 -2.265625 1.953125 -2.117188 1.828125 -1.953125 C 1.710938 -1.796875 1.65625 -1.628906 1.65625 -1.453125 C 1.65625 -1.242188 1.726562 -1.09375 1.875 -1 C 2.03125 -0.914062 2.289062 -0.875 2.65625 -0.875 L 3.75 -0.875 C 4.4375 -0.875 4.960938 -0.734375 5.328125 -0.453125 C 5.691406 -0.179688 5.875 0.222656 5.875 0.765625 C 5.875 1.429688 5.601562 1.945312 5.0625 2.3125 C 4.519531 2.675781 3.75 2.859375 2.75 2.859375 C 1.957031 2.859375 1.34375 2.703125 0.90625 2.390625 C 0.476562 2.085938 0.265625 1.664062 0.265625 1.125 C 0.265625 0.6875 0.394531 0.320312 0.65625 0.03125 C 0.925781 -0.25 1.289062 -0.441406 1.75 -0.546875 C 1.5625 -0.628906 1.410156 -0.742188 1.296875 -0.890625 C 1.179688 -1.035156 1.125 -1.207031 1.125 -1.40625 C 1.125 -1.820312 1.394531 -2.191406 1.9375 -2.515625 C 1.570312 -2.671875 1.285156 -2.910156 1.078125 -3.234375 C 0.867188 -3.554688 0.765625 -3.925781 0.765625 -4.34375 C 0.765625 -4.96875 0.960938 -5.46875 1.359375 -5.84375 C 1.765625 -6.226562 2.304688 -6.421875 2.984375 -6.421875 C 3.398438 -6.421875 3.722656 -6.378906 3.953125 -6.296875 Z M 0.875 1.0625 C 0.875 1.925781 1.515625 2.359375 2.796875 2.359375 C 4.453125 2.359375 5.28125 1.832031 5.28125 0.78125 C 5.28125 0.40625 5.148438 0.132812 4.890625 -0.03125 C 4.628906 -0.207031 4.210938 -0.296875 3.640625 -0.296875 L 2.609375 -0.296875 C 1.453125 -0.296875 0.875 0.15625 0.875 1.0625 Z M 1.34375 -4.34375 C 1.34375 -3.851562 1.488281 -3.472656 1.78125 -3.203125 C 2.082031 -2.929688 2.484375 -2.796875 2.984375 -2.796875 C 3.503906 -2.796875 3.90625 -2.925781 4.1875 -3.1875 C 4.46875 -3.457031 4.609375 -3.847656 4.609375 -4.359375 C 4.609375 -4.898438 4.460938 -5.300781 4.171875 -5.5625 C 3.890625 -5.832031 3.488281 -5.96875 2.96875 -5.96875 C 2.46875 -5.96875 2.070312 -5.820312 1.78125 -5.53125 C 1.488281 -5.25 1.34375 -4.851562 1.34375 -4.34375 Z M 1.34375 -4.34375 "/></g></g></g></svg>