<svg xmlns="http://www.w3.org/2000/svg" xmlns:xlink="http://www.w3.org/1999/xlink" width="511" zoomAndPan="magnify" viewBox="0 0 383.25 67.499998" height="90" preserveAspectRatio="xMidYMid meet" version="1.0"><defs><g/><clipPath id="e1561daaed"><path d="M 60 0 L 107.972656 0 L 107.972656 66 L 60 66 Z M 60 0 " clip-rule="nonzero"/></clipPath></defs><g clip-path="url(#e1561daaed)"><path fill="#2d3557" d="M 107.667969 40.320312 C 107.65625 40.058594 107.617188 39.796875 107.550781 39.542969 C 107.488281 39.289062 107.398438 39.042969 107.285156 38.804688 C 107.171875 38.570312 107.039062 38.34375 106.882812 38.132812 C 106.722656 37.921875 106.546875 37.730469 106.351562 37.554688 C 106.15625 37.378906 105.945312 37.222656 105.71875 37.089844 C 105.496094 36.957031 105.257812 36.84375 105.007812 36.757812 C 104.761719 36.671875 104.507812 36.609375 104.246094 36.574219 C 103.988281 36.535156 103.726562 36.523438 103.464844 36.539062 C 103.199219 36.554688 102.941406 36.59375 102.6875 36.660156 C 102.433594 36.726562 102.1875 36.816406 101.953125 36.933594 C 101.714844 37.046875 101.492188 37.183594 101.285156 37.34375 C 101.074219 37.5 100.882812 37.679688 100.707031 37.875 C 100.535156 38.070312 100.378906 38.285156 100.25 38.511719 C 100.117188 38.738281 100.007812 38.976562 99.921875 39.222656 C 99.835938 39.472656 99.777344 39.726562 99.742188 39.988281 C 99.707031 40.25 99.699219 40.507812 99.714844 40.773438 C 99.730469 41.0625 99.738281 41.355469 99.738281 41.652344 C 99.738281 42.265625 99.703125 42.875 99.632812 43.480469 C 99.558594 44.085938 99.453125 44.6875 99.3125 45.285156 C 99.167969 45.878906 98.992188 46.460938 98.78125 47.035156 C 98.566406 47.609375 98.324219 48.167969 98.046875 48.714844 C 97.769531 49.257812 97.460938 49.785156 97.121094 50.292969 C 96.78125 50.800781 96.410156 51.289062 96.015625 51.753906 C 95.617188 52.21875 95.191406 52.65625 94.742188 53.070312 C 94.292969 53.484375 93.820312 53.871094 93.328125 54.230469 C 92.832031 54.589844 92.316406 54.917969 91.785156 55.21875 C 91.25 55.515625 90.699219 55.78125 90.136719 56.015625 C 89.570312 56.246094 88.992188 56.445312 88.402344 56.613281 C 87.816406 56.777344 87.21875 56.90625 86.613281 57 C 86.011719 57.09375 85.402344 57.152344 84.792969 57.175781 C 84.179688 57.199219 83.570312 57.1875 82.960938 57.136719 C 82.351562 57.085938 81.746094 57 81.148438 56.882812 C 80.550781 56.761719 79.957031 56.605469 79.378906 56.414062 C 78.796875 56.222656 78.230469 56 77.675781 55.742188 C 77.121094 55.484375 76.582031 55.195312 76.0625 54.875 C 75.542969 54.550781 75.042969 54.203125 74.5625 53.820312 C 74.085938 53.441406 73.628906 53.035156 73.199219 52.601562 C 72.769531 52.167969 72.363281 51.707031 71.988281 51.226562 C 71.613281 50.746094 71.265625 50.242188 70.945312 49.71875 C 70.628906 49.199219 70.34375 48.65625 70.089844 48.101562 C 69.835938 47.546875 69.617188 46.976562 69.429688 46.394531 C 69.246094 45.8125 69.09375 45.21875 68.976562 44.621094 C 68.859375 44.019531 68.78125 43.414062 68.734375 42.804688 C 68.691406 42.195312 68.679688 41.585938 68.707031 40.972656 C 68.734375 40.363281 68.800781 39.753906 68.898438 39.152344 C 68.996094 38.550781 69.132812 37.953125 69.300781 37.367188 C 69.46875 36.777344 69.671875 36.203125 69.910156 35.640625 C 70.148438 35.074219 70.417969 34.527344 70.71875 33.996094 C 71.019531 33.464844 71.355469 32.953125 71.714844 32.460938 C 72.078125 31.96875 72.46875 31.5 72.886719 31.054688 C 73.304688 30.605469 73.746094 30.1875 74.214844 29.792969 C 74.683594 29.398438 75.171875 29.035156 75.683594 28.699219 C 76.195312 28.363281 76.722656 28.054688 77.269531 27.78125 C 77.816406 27.507812 78.378906 27.269531 78.953125 27.0625 C 79.527344 26.855469 80.113281 26.679688 80.707031 26.542969 C 81.304688 26.40625 81.90625 26.300781 82.515625 26.234375 C 83.121094 26.167969 83.730469 26.136719 84.34375 26.140625 C 84.953125 26.148438 85.5625 26.1875 86.167969 26.265625 C 86.777344 26.34375 87.375 26.453125 87.96875 26.601562 C 88.5625 26.75 89.144531 26.933594 89.71875 27.148438 C 90.289062 27.367188 90.84375 27.617188 91.386719 27.898438 C 91.929688 28.179688 92.453125 28.492188 92.960938 28.839844 C 93.464844 29.183594 93.949219 29.554688 94.410156 29.957031 C 94.871094 30.359375 95.304688 30.785156 95.714844 31.238281 C 96.128906 31.691406 96.507812 32.167969 96.863281 32.664062 C 97.015625 32.878906 97.1875 33.074219 97.378906 33.253906 C 97.566406 33.433594 97.773438 33.59375 97.996094 33.730469 C 98.214844 33.871094 98.449219 33.984375 98.695312 34.078125 C 98.9375 34.171875 99.1875 34.238281 99.445312 34.28125 C 99.703125 34.328125 99.964844 34.34375 100.226562 34.335938 C 100.488281 34.328125 100.746094 34.296875 101 34.238281 C 101.253906 34.179688 101.5 34.097656 101.738281 33.988281 C 101.980469 33.882812 102.203125 33.753906 102.417969 33.601562 C 102.628906 33.449219 102.828125 33.277344 103.007812 33.089844 C 103.183594 32.898438 103.34375 32.691406 103.484375 32.46875 C 103.621094 32.25 103.738281 32.015625 103.832031 31.773438 C 103.925781 31.527344 103.992188 31.277344 104.035156 31.019531 C 104.078125 30.761719 104.097656 30.5 104.089844 30.238281 C 104.082031 29.980469 104.050781 29.71875 103.992188 29.464844 C 103.933594 29.210938 103.851562 28.964844 103.742188 28.726562 C 103.636719 28.488281 103.507812 28.261719 103.355469 28.046875 C 101.671875 25.683594 99.617188 23.699219 97.199219 22.097656 C 94.78125 20.492188 92.15625 19.371094 89.324219 18.738281 L 95.796875 5.601562 C 96.003906 5.179688 96.125 4.738281 96.15625 4.269531 C 96.1875 3.800781 96.128906 3.34375 95.976562 2.898438 C 95.824219 2.453125 95.59375 2.054688 95.285156 1.699219 C 94.976562 1.347656 94.609375 1.066406 94.1875 0.859375 C 93.769531 0.652344 93.324219 0.53125 92.855469 0.5 C 92.386719 0.46875 91.929688 0.527344 91.484375 0.679688 C 91.039062 0.832031 90.640625 1.0625 90.285156 1.371094 C 89.933594 1.679688 89.652344 2.046875 89.445312 2.46875 L 80.164062 18.527344 L 80.019531 18.554688 L 83.195312 6.136719 C 83.273438 5.910156 83.324219 5.679688 83.351562 5.441406 C 83.378906 5.207031 83.382812 4.96875 83.363281 4.734375 C 83.34375 4.496094 83.300781 4.261719 83.234375 4.035156 C 83.167969 3.804688 83.082031 3.585938 82.96875 3.375 C 82.859375 3.164062 82.730469 2.96875 82.578125 2.785156 C 82.429688 2.601562 82.261719 2.433594 82.078125 2.28125 C 81.890625 2.132812 81.695312 2 81.484375 1.890625 C 81.273438 1.777344 81.054688 1.691406 80.828125 1.625 C 80.597656 1.558594 80.367188 1.515625 80.128906 1.496094 C 79.890625 1.472656 79.65625 1.480469 79.417969 1.507812 C 79.183594 1.535156 78.949219 1.585938 78.726562 1.660156 C 78.5 1.734375 78.28125 1.832031 78.078125 1.949219 C 77.871094 2.066406 77.675781 2.207031 77.5 2.363281 C 77.320312 2.519531 77.160156 2.691406 77.015625 2.882812 C 76.871094 3.070312 76.746094 3.273438 76.644531 3.488281 C 76.542969 3.703125 76.460938 3.925781 76.402344 4.15625 L 70.492188 22.21875 L 70.492188 9.902344 C 70.519531 9.429688 70.453125 8.964844 70.289062 8.515625 C 70.128906 8.070312 69.886719 7.667969 69.566406 7.316406 C 69.242188 6.96875 68.863281 6.691406 68.429688 6.492188 C 67.996094 6.296875 67.542969 6.1875 67.066406 6.175781 C 66.589844 6.160156 66.128906 6.238281 65.683594 6.410156 C 65.238281 6.582031 64.847656 6.832031 64.503906 7.164062 C 64.160156 7.492188 63.894531 7.878906 63.703125 8.316406 C 63.515625 8.753906 63.421875 9.210938 63.417969 9.6875 L 62.726562 32.179688 C 62.375 32.976562 62.066406 33.789062 61.804688 34.621094 C 61.546875 35.453125 61.332031 36.296875 61.164062 37.152344 C 60.996094 38.007812 60.878906 38.867188 60.808594 39.734375 C 60.734375 40.605469 60.710938 41.472656 60.738281 42.34375 C 60.765625 43.214844 60.835938 44.082031 60.960938 44.945312 C 61.082031 45.808594 61.25 46.660156 61.46875 47.503906 C 61.683594 48.347656 61.949219 49.175781 62.257812 49.992188 C 62.566406 50.804688 62.917969 51.601562 63.316406 52.375 C 63.714844 53.152344 64.152344 53.902344 64.636719 54.628906 C 65.117188 55.355469 65.636719 56.050781 66.195312 56.71875 C 66.753906 57.386719 67.347656 58.023438 67.976562 58.625 C 68.605469 59.230469 69.269531 59.792969 69.960938 60.324219 C 70.652344 60.851562 71.371094 61.339844 72.117188 61.789062 C 72.867188 62.238281 73.636719 62.644531 74.425781 63.007812 C 75.21875 63.371094 76.027344 63.6875 76.855469 63.960938 C 77.683594 64.234375 78.523438 64.460938 79.375 64.640625 C 80.226562 64.820312 81.085938 64.949219 81.953125 65.035156 C 82.820312 65.117188 83.691406 65.152344 84.5625 65.140625 C 85.433594 65.128906 86.300781 65.066406 87.164062 64.957031 C 88.03125 64.847656 88.886719 64.691406 89.730469 64.488281 C 90.578125 64.28125 91.410156 64.03125 92.230469 63.734375 C 93.050781 63.4375 93.847656 63.09375 94.628906 62.707031 C 95.410156 62.324219 96.167969 61.894531 96.902344 61.421875 C 97.632812 60.953125 98.339844 60.445312 99.015625 59.894531 C 99.691406 59.34375 100.335938 58.761719 100.949219 58.140625 C 101.558594 57.519531 102.132812 56.867188 102.671875 56.183594 C 103.210938 55.496094 103.710938 54.785156 104.171875 54.046875 C 104.628906 53.304688 105.046875 52.542969 105.421875 51.753906 C 105.796875 50.96875 106.125 50.164062 106.410156 49.339844 C 106.695312 48.519531 106.933594 47.679688 107.125 46.832031 C 107.320312 45.980469 107.460938 45.125 107.558594 44.257812 C 107.65625 43.390625 107.703125 42.523438 107.703125 41.652344 C 107.703125 41.207031 107.695312 40.761719 107.667969 40.320312 Z M 107.667969 40.320312 " fill-opacity="1" fill-rule="nonzero"/></g><path fill="#5e17eb" d="M 84.214844 27.414062 C 83.175781 27.414062 82.152344 27.527344 81.140625 27.753906 L 82.992188 30.78125 L 79.335938 49.859375 L 84.214844 54.28125 L 89.097656 49.859375 L 85.4375 30.78125 L 87.292969 27.753906 C 86.277344 27.527344 85.253906 27.414062 84.214844 27.414062 Z M 84.214844 27.414062 " fill-opacity="1" fill-rule="nonzero"/><g fill="#2d3557" fill-opacity="1"><g transform="translate(120.551316, 37.615452)"><g><path d="M 28.96875 0 L 19.296875 0 L 9.3125 -19.25 L 9.140625 -19.25 C 9.378906 -16.21875 9.5 -13.90625 9.5 -12.3125 L 9.5 0 L 2.953125 0 L 2.953125 -27.328125 L 12.59375 -27.328125 L 22.546875 -8.34375 L 22.65625 -8.34375 C 22.476562 -11.09375 22.390625 -13.300781 22.390625 -14.96875 L 22.390625 -27.328125 L 28.96875 -27.328125 Z M 28.96875 0 "/></g></g></g><g fill="#2d3557" fill-opacity="1"><g transform="translate(152.48178, 37.615452)"><g><path d="M 9.875 0 L 2.5625 0 L 2.5625 -21.171875 L 9.875 -21.171875 Z M 2.375 -26.453125 C 2.375 -27.546875 2.675781 -28.359375 3.28125 -28.890625 C 3.894531 -29.429688 4.882812 -29.703125 6.25 -29.703125 C 7.601562 -29.703125 8.59375 -29.425781 9.21875 -28.875 C 9.84375 -28.332031 10.15625 -27.523438 10.15625 -26.453125 C 10.15625 -24.304688 8.851562 -23.234375 6.25 -23.234375 C 3.664062 -23.234375 2.375 -24.304688 2.375 -26.453125 Z M 2.375 -26.453125 "/></g></g></g><g fill="#2d3557" fill-opacity="1"><g transform="translate(164.932417, 37.615452)"><g><path d="M 12.171875 0.375 C 8.703125 0.375 6.070312 -0.554688 4.28125 -2.421875 C 2.5 -4.296875 1.609375 -6.984375 1.609375 -10.484375 C 1.609375 -13.992188 2.570312 -16.710938 4.5 -18.640625 C 6.4375 -20.578125 9.1875 -21.546875 12.75 -21.546875 C 15.207031 -21.546875 17.519531 -21.007812 19.6875 -19.9375 L 17.53125 -14.546875 C 16.644531 -14.929688 15.828125 -15.238281 15.078125 -15.46875 C 14.335938 -15.695312 13.5625 -15.8125 12.75 -15.8125 C 11.5625 -15.8125 10.644531 -15.347656 10 -14.421875 C 9.351562 -13.503906 9.03125 -12.207031 9.03125 -10.53125 C 9.03125 -7.132812 10.28125 -5.4375 12.78125 -5.4375 C 14.925781 -5.4375 16.984375 -6.0625 18.953125 -7.3125 L 18.953125 -1.5 C 17.066406 -0.25 14.804688 0.375 12.171875 0.375 Z M 12.171875 0.375 "/></g></g></g><g fill="#2d3557" fill-opacity="1"><g transform="translate(185.571312, 37.615452)"><g><path d="M 12.75 0.375 C 9.21875 0.375 6.476562 -0.5625 4.53125 -2.4375 C 2.582031 -4.3125 1.609375 -6.984375 1.609375 -10.453125 C 1.609375 -14.023438 2.507812 -16.765625 4.3125 -18.671875 C 6.125 -20.585938 8.707031 -21.546875 12.0625 -21.546875 C 15.25 -21.546875 17.710938 -20.710938 19.453125 -19.046875 C 21.191406 -17.390625 22.0625 -15 22.0625 -11.875 L 22.0625 -8.609375 L 8.984375 -8.609375 C 9.035156 -7.429688 9.46875 -6.503906 10.28125 -5.828125 C 11.101562 -5.160156 12.21875 -4.828125 13.625 -4.828125 C 14.90625 -4.828125 16.082031 -4.945312 17.15625 -5.1875 C 18.238281 -5.425781 19.410156 -5.84375 20.671875 -6.4375 L 20.671875 -1.171875 C 19.523438 -0.585938 18.34375 -0.1875 17.125 0.03125 C 15.90625 0.257812 14.445312 0.375 12.75 0.375 Z M 12.3125 -16.578125 C 11.457031 -16.578125 10.738281 -16.304688 10.15625 -15.765625 C 9.582031 -15.222656 9.242188 -14.375 9.140625 -13.21875 L 15.421875 -13.21875 C 15.398438 -14.238281 15.109375 -15.050781 14.546875 -15.65625 C 13.992188 -16.269531 13.25 -16.578125 12.3125 -16.578125 Z M 12.3125 -16.578125 "/></g></g></g><g fill="#2d3557" fill-opacity="1"><g transform="translate(209.238739, 37.615452)"><g><path d="M 0.796875 8.578125 C -0.546875 8.578125 -1.820312 8.445312 -3.03125 8.1875 L -3.03125 2.453125 C -2.632812 2.523438 -2.207031 2.609375 -1.75 2.703125 C -1.300781 2.796875 -0.816406 2.84375 -0.296875 2.84375 C 0.921875 2.84375 1.789062 2.472656 2.3125 1.734375 C 2.84375 1.003906 3.109375 -0.25 3.109375 -2.03125 L 3.109375 -27.328125 L 10.53125 -27.328125 L 10.53125 -2.671875 C 10.53125 1.023438 9.71875 3.820312 8.09375 5.71875 C 6.46875 7.625 4.035156 8.578125 0.796875 8.578125 Z M 0.796875 8.578125 "/></g></g></g><g fill="#2d3557" fill-opacity="1"><g transform="translate(222.717587, 37.615452)"><g><path d="M 22.75 -10.640625 C 22.75 -7.171875 21.816406 -4.46875 19.953125 -2.53125 C 18.085938 -0.59375 15.476562 0.375 12.125 0.375 C 8.914062 0.375 6.359375 -0.613281 4.453125 -2.59375 C 2.554688 -4.570312 1.609375 -7.253906 1.609375 -10.640625 C 1.609375 -14.085938 2.539062 -16.765625 4.40625 -18.671875 C 6.269531 -20.585938 8.882812 -21.546875 12.25 -21.546875 C 14.320312 -21.546875 16.15625 -21.101562 17.75 -20.21875 C 19.351562 -19.332031 20.585938 -18.0625 21.453125 -16.40625 C 22.316406 -14.757812 22.75 -12.835938 22.75 -10.640625 Z M 9.03125 -10.640625 C 9.03125 -8.816406 9.269531 -7.425781 9.75 -6.46875 C 10.238281 -5.519531 11.054688 -5.046875 12.203125 -5.046875 C 13.335938 -5.046875 14.140625 -5.519531 14.609375 -6.46875 C 15.078125 -7.425781 15.3125 -8.816406 15.3125 -10.640625 C 15.3125 -12.441406 15.070312 -13.800781 14.59375 -14.71875 C 14.125 -15.644531 13.316406 -16.109375 12.171875 -16.109375 C 11.046875 -16.109375 10.238281 -15.648438 9.75 -14.734375 C 9.269531 -13.816406 9.03125 -12.453125 9.03125 -10.640625 Z M 9.03125 -10.640625 "/></g></g></g><g fill="#2d3557" fill-opacity="1"><g transform="translate(247.114112, 37.615452)"><g><path d="M 15.453125 -21.546875 C 17.765625 -21.546875 19.59375 -20.578125 20.9375 -18.640625 C 22.289062 -16.710938 22.96875 -14.046875 22.96875 -10.640625 C 22.96875 -7.203125 22.285156 -4.503906 20.921875 -2.546875 C 19.554688 -0.597656 17.660156 0.375 15.234375 0.375 C 14.453125 0.375 13.753906 0.289062 13.140625 0.125 C 12.523438 -0.0390625 11.976562 -0.273438 11.5 -0.578125 C 11.019531 -0.878906 10.460938 -1.378906 9.828125 -2.078125 L 9.390625 -2.078125 L 8.21875 0 L 2.515625 0 L 2.515625 -29.078125 L 9.828125 -29.078125 L 9.828125 -22.5 C 9.828125 -21.71875 9.742188 -20.367188 9.578125 -18.453125 L 9.828125 -18.453125 C 10.535156 -19.546875 11.351562 -20.332031 12.28125 -20.8125 C 13.21875 -21.300781 14.273438 -21.546875 15.453125 -21.546875 Z M 12.78125 -15.8125 C 11.757812 -15.8125 11.007812 -15.457031 10.53125 -14.75 C 10.0625 -14.039062 9.828125 -12.925781 9.828125 -11.40625 L 9.828125 -10.375 C 9.828125 -8.644531 10.0625 -7.398438 10.53125 -6.640625 C 11.007812 -5.890625 11.785156 -5.515625 12.859375 -5.515625 C 13.722656 -5.515625 14.382812 -5.953125 14.84375 -6.828125 C 15.300781 -7.710938 15.53125 -9.003906 15.53125 -10.703125 C 15.53125 -14.109375 14.613281 -15.8125 12.78125 -15.8125 Z M 12.78125 -15.8125 "/></g></g></g><g fill="#5e17eb" fill-opacity="1"><g transform="translate(129.246894, 56.367674)"><g><path d="M 6.265625 0 L 5.75 0 L 1.484375 -6.390625 L 1.4375 -6.390625 C 1.476562 -5.628906 1.5 -5.054688 1.5 -4.671875 L 1.5 0 L 1.015625 0 L 1.015625 -7.203125 L 1.515625 -7.203125 L 5.78125 -0.8125 L 5.8125 -0.8125 C 5.78125 -1.40625 5.765625 -1.96875 5.765625 -2.5 L 5.765625 -7.203125 L 6.265625 -7.203125 Z M 6.265625 0 "/></g></g></g><g fill="#5e17eb" fill-opacity="1"><g transform="translate(136.525316, 56.367674)"><g><path d="M 1.328125 -5.359375 L 1.328125 -1.890625 C 1.328125 -1.347656 1.4375 -0.953125 1.65625 -0.703125 C 1.882812 -0.460938 2.238281 -0.34375 2.71875 -0.34375 C 3.351562 -0.34375 3.820312 -0.503906 4.125 -0.828125 C 4.425781 -1.148438 4.578125 -1.675781 4.578125 -2.40625 L 4.578125 -5.359375 L 5.0625 -5.359375 L 5.0625 0 L 4.640625 0 L 4.546875 -0.734375 L 4.53125 -0.734375 C 4.175781 -0.179688 3.554688 0.09375 2.671875 0.09375 C 1.453125 0.09375 0.84375 -0.554688 0.84375 -1.859375 L 0.84375 -5.359375 Z M 1.328125 -5.359375 "/></g></g></g><g fill="#5e17eb" fill-opacity="1"><g transform="translate(142.478144, 56.367674)"><g><path d="M 7.59375 0 L 7.59375 -3.515625 C 7.59375 -4.035156 7.488281 -4.414062 7.28125 -4.65625 C 7.082031 -4.894531 6.769531 -5.015625 6.34375 -5.015625 C 5.800781 -5.015625 5.394531 -4.863281 5.125 -4.5625 C 4.863281 -4.257812 4.734375 -3.785156 4.734375 -3.140625 L 4.734375 0 L 4.234375 0 L 4.234375 -3.65625 C 4.234375 -4.5625 3.820312 -5.015625 3 -5.015625 C 2.4375 -5.015625 2.023438 -4.847656 1.765625 -4.515625 C 1.515625 -4.191406 1.390625 -3.671875 1.390625 -2.953125 L 1.390625 0 L 0.890625 0 L 0.890625 -5.359375 L 1.296875 -5.359375 L 1.40625 -4.625 L 1.4375 -4.625 C 1.582031 -4.882812 1.789062 -5.085938 2.0625 -5.234375 C 2.332031 -5.378906 2.632812 -5.453125 2.96875 -5.453125 C 3.8125 -5.453125 4.351562 -5.140625 4.59375 -4.515625 L 4.609375 -4.515625 C 4.785156 -4.816406 5.019531 -5.046875 5.3125 -5.203125 C 5.601562 -5.367188 5.9375 -5.453125 6.3125 -5.453125 C 6.90625 -5.453125 7.347656 -5.296875 7.640625 -4.984375 C 7.929688 -4.679688 8.078125 -4.1875 8.078125 -3.5 L 8.078125 0 Z M 7.59375 0 "/></g></g></g><g fill="#5e17eb" fill-opacity="1"><g transform="translate(151.387675, 56.367674)"><g><path d="M 3.15625 -5.453125 C 3.90625 -5.453125 4.46875 -5.21875 4.84375 -4.75 C 5.226562 -4.28125 5.421875 -3.59375 5.421875 -2.6875 C 5.421875 -1.789062 5.21875 -1.101562 4.8125 -0.625 C 4.414062 -0.144531 3.859375 0.09375 3.140625 0.09375 C 2.753906 0.09375 2.410156 0.015625 2.109375 -0.140625 C 1.804688 -0.296875 1.566406 -0.519531 1.390625 -0.8125 L 1.34375 -0.8125 L 1.203125 0 L 0.890625 0 L 0.890625 -7.671875 L 1.390625 -7.671875 L 1.390625 -5.734375 C 1.390625 -5.453125 1.378906 -5.1875 1.359375 -4.9375 L 1.34375 -4.53125 L 1.390625 -4.53125 C 1.585938 -4.84375 1.828125 -5.070312 2.109375 -5.21875 C 2.398438 -5.375 2.75 -5.453125 3.15625 -5.453125 Z M 3.15625 -5.015625 C 2.519531 -5.015625 2.066406 -4.832031 1.796875 -4.46875 C 1.523438 -4.113281 1.390625 -3.519531 1.390625 -2.6875 L 1.390625 -2.609375 C 1.390625 -1.796875 1.53125 -1.210938 1.8125 -0.859375 C 2.09375 -0.503906 2.535156 -0.328125 3.140625 -0.328125 C 3.722656 -0.328125 4.160156 -0.53125 4.453125 -0.9375 C 4.753906 -1.351562 4.90625 -1.941406 4.90625 -2.703125 C 4.90625 -4.242188 4.320312 -5.015625 3.15625 -5.015625 Z M 3.15625 -5.015625 "/></g></g></g><g fill="#5e17eb" fill-opacity="1"><g transform="translate(157.394714, 56.367674)"><g><path d="M 3.0625 0.09375 C 2.28125 0.09375 1.671875 -0.144531 1.234375 -0.625 C 0.804688 -1.101562 0.59375 -1.773438 0.59375 -2.640625 C 0.59375 -3.492188 0.800781 -4.175781 1.21875 -4.6875 C 1.632812 -5.195312 2.203125 -5.453125 2.921875 -5.453125 C 3.546875 -5.453125 4.039062 -5.234375 4.40625 -4.796875 C 4.769531 -4.359375 4.953125 -3.757812 4.953125 -3 L 4.953125 -2.609375 L 1.09375 -2.609375 C 1.101562 -1.878906 1.273438 -1.316406 1.609375 -0.921875 C 1.953125 -0.535156 2.4375 -0.34375 3.0625 -0.34375 C 3.363281 -0.34375 3.628906 -0.363281 3.859375 -0.40625 C 4.097656 -0.445312 4.394531 -0.539062 4.75 -0.6875 L 4.75 -0.234375 C 4.445312 -0.109375 4.164062 -0.0234375 3.90625 0.015625 C 3.65625 0.0664062 3.375 0.09375 3.0625 0.09375 Z M 2.921875 -5.03125 C 2.398438 -5.03125 1.984375 -4.859375 1.671875 -4.515625 C 1.359375 -4.171875 1.175781 -3.679688 1.125 -3.046875 L 4.4375 -3.046875 C 4.4375 -3.671875 4.300781 -4.15625 4.03125 -4.5 C 3.757812 -4.851562 3.390625 -5.03125 2.921875 -5.03125 Z M 2.921875 -5.03125 "/></g></g></g><g fill="#5e17eb" fill-opacity="1"><g transform="translate(162.933604, 56.367674)"><g><path d="M 3 -5.453125 C 3.226562 -5.453125 3.472656 -5.429688 3.734375 -5.390625 L 3.640625 -4.921875 C 3.421875 -4.972656 3.191406 -5 2.953125 -5 C 2.492188 -5 2.117188 -4.804688 1.828125 -4.421875 C 1.535156 -4.035156 1.390625 -3.546875 1.390625 -2.953125 L 1.390625 0 L 0.890625 0 L 0.890625 -5.359375 L 1.3125 -5.359375 L 1.359375 -4.390625 L 1.390625 -4.390625 C 1.609375 -4.785156 1.84375 -5.0625 2.09375 -5.21875 C 2.34375 -5.375 2.644531 -5.453125 3 -5.453125 Z M 3 -5.453125 "/></g></g></g><g fill="#5e17eb" fill-opacity="1"><g transform="translate(166.861096, 56.367674)"><g/></g></g><g fill="#5e17eb" fill-opacity="1"><g transform="translate(169.482705, 56.367674)"><g><path d="M 5.328125 -2.6875 C 5.328125 -1.8125 5.113281 -1.128906 4.6875 -0.640625 C 4.269531 -0.148438 3.6875 0.09375 2.9375 0.09375 C 2.46875 0.09375 2.050781 -0.015625 1.6875 -0.234375 C 1.332031 -0.460938 1.0625 -0.789062 0.875 -1.21875 C 0.6875 -1.644531 0.59375 -2.132812 0.59375 -2.6875 C 0.59375 -3.5625 0.800781 -4.238281 1.21875 -4.71875 C 1.644531 -5.207031 2.226562 -5.453125 2.96875 -5.453125 C 3.707031 -5.453125 4.285156 -5.207031 4.703125 -4.71875 C 5.117188 -4.226562 5.328125 -3.550781 5.328125 -2.6875 Z M 1.09375 -2.6875 C 1.09375 -1.945312 1.253906 -1.367188 1.578125 -0.953125 C 1.898438 -0.546875 2.359375 -0.34375 2.953125 -0.34375 C 3.546875 -0.34375 4.003906 -0.546875 4.328125 -0.953125 C 4.648438 -1.367188 4.8125 -1.945312 4.8125 -2.6875 C 4.8125 -3.425781 4.644531 -4 4.3125 -4.40625 C 3.988281 -4.8125 3.535156 -5.015625 2.953125 -5.015625 C 2.359375 -5.015625 1.898438 -4.8125 1.578125 -4.40625 C 1.253906 -4 1.09375 -3.425781 1.09375 -2.6875 Z M 1.09375 -2.6875 "/></g></g></g><g fill="#5e17eb" fill-opacity="1"><g transform="translate(175.396111, 56.367674)"><g><path d="M 4.640625 0 L 4.640625 -3.46875 C 4.640625 -4.007812 4.523438 -4.398438 4.296875 -4.640625 C 4.066406 -4.890625 3.710938 -5.015625 3.234375 -5.015625 C 2.597656 -5.015625 2.128906 -4.851562 1.828125 -4.53125 C 1.535156 -4.207031 1.390625 -3.679688 1.390625 -2.953125 L 1.390625 0 L 0.890625 0 L 0.890625 -5.359375 L 1.3125 -5.359375 L 1.40625 -4.625 L 1.4375 -4.625 C 1.78125 -5.175781 2.398438 -5.453125 3.296875 -5.453125 C 4.503906 -5.453125 5.109375 -4.800781 5.109375 -3.5 L 5.109375 0 Z M 4.640625 0 "/></g></g></g><g fill="#5e17eb" fill-opacity="1"><g transform="translate(181.348939, 56.367674)"><g><path d="M 3.0625 0.09375 C 2.28125 0.09375 1.671875 -0.144531 1.234375 -0.625 C 0.804688 -1.101562 0.59375 -1.773438 0.59375 -2.640625 C 0.59375 -3.492188 0.800781 -4.175781 1.21875 -4.6875 C 1.632812 -5.195312 2.203125 -5.453125 2.921875 -5.453125 C 3.546875 -5.453125 4.039062 -5.234375 4.40625 -4.796875 C 4.769531 -4.359375 4.953125 -3.757812 4.953125 -3 L 4.953125 -2.609375 L 1.09375 -2.609375 C 1.101562 -1.878906 1.273438 -1.316406 1.609375 -0.921875 C 1.953125 -0.535156 2.4375 -0.34375 3.0625 -0.34375 C 3.363281 -0.34375 3.628906 -0.363281 3.859375 -0.40625 C 4.097656 -0.445312 4.394531 -0.539062 4.75 -0.6875 L 4.75 -0.234375 C 4.445312 -0.109375 4.164062 -0.0234375 3.90625 0.015625 C 3.65625 0.0664062 3.375 0.09375 3.0625 0.09375 Z M 2.921875 -5.03125 C 2.398438 -5.03125 1.984375 -4.859375 1.671875 -4.515625 C 1.359375 -4.171875 1.175781 -3.679688 1.125 -3.046875 L 4.4375 -3.046875 C 4.4375 -3.671875 4.300781 -4.15625 4.03125 -4.5 C 3.757812 -4.851562 3.390625 -5.03125 2.921875 -5.03125 Z M 2.921875 -5.03125 "/></g></g></g><g fill="#5e17eb" fill-opacity="1"><g transform="translate(186.887829, 56.367674)"><g/></g></g><g fill="#5e17eb" fill-opacity="1"><g transform="translate(189.509439, 56.367674)"><g><path d="M 5.328125 -2.6875 C 5.328125 -1.8125 5.113281 -1.128906 4.6875 -0.640625 C 4.269531 -0.148438 3.6875 0.09375 2.9375 0.09375 C 2.46875 0.09375 2.050781 -0.015625 1.6875 -0.234375 C 1.332031 -0.460938 1.0625 -0.789062 0.875 -1.21875 C 0.6875 -1.644531 0.59375 -2.132812 0.59375 -2.6875 C 0.59375 -3.5625 0.800781 -4.238281 1.21875 -4.71875 C 1.644531 -5.207031 2.226562 -5.453125 2.96875 -5.453125 C 3.707031 -5.453125 4.285156 -5.207031 4.703125 -4.71875 C 5.117188 -4.226562 5.328125 -3.550781 5.328125 -2.6875 Z M 1.09375 -2.6875 C 1.09375 -1.945312 1.253906 -1.367188 1.578125 -0.953125 C 1.898438 -0.546875 2.359375 -0.34375 2.953125 -0.34375 C 3.546875 -0.34375 4.003906 -0.546875 4.328125 -0.953125 C 4.648438 -1.367188 4.8125 -1.945312 4.8125 -2.6875 C 4.8125 -3.425781 4.644531 -4 4.3125 -4.40625 C 3.988281 -4.8125 3.535156 -5.015625 2.953125 -5.015625 C 2.359375 -5.015625 1.898438 -4.8125 1.578125 -4.40625 C 1.253906 -4 1.09375 -3.425781 1.09375 -2.6875 Z M 1.09375 -2.6875 "/></g></g></g><g fill="#5e17eb" fill-opacity="1"><g transform="translate(195.422844, 56.367674)"><g><path d="M 4.640625 0 L 4.640625 -3.46875 C 4.640625 -4.007812 4.523438 -4.398438 4.296875 -4.640625 C 4.066406 -4.890625 3.710938 -5.015625 3.234375 -5.015625 C 2.597656 -5.015625 2.128906 -4.851562 1.828125 -4.53125 C 1.535156 -4.207031 1.390625 -3.679688 1.390625 -2.953125 L 1.390625 0 L 0.890625 0 L 0.890625 -5.359375 L 1.3125 -5.359375 L 1.40625 -4.625 L 1.4375 -4.625 C 1.78125 -5.175781 2.398438 -5.453125 3.296875 -5.453125 C 4.503906 -5.453125 5.109375 -4.800781 5.109375 -3.5 L 5.109375 0 Z M 4.640625 0 "/></g></g></g><g fill="#5e17eb" fill-opacity="1"><g transform="translate(201.375673, 56.367674)"><g><path d="M 1.390625 0 L 0.890625 0 L 0.890625 -7.671875 L 1.390625 -7.671875 Z M 1.390625 0 "/></g></g></g><g fill="#5e17eb" fill-opacity="1"><g transform="translate(203.657266, 56.367674)"><g><path d="M 1.390625 0 L 0.890625 0 L 0.890625 -5.359375 L 1.390625 -5.359375 Z M 0.828125 -6.84375 C 0.828125 -7.15625 0.929688 -7.3125 1.140625 -7.3125 C 1.242188 -7.3125 1.320312 -7.269531 1.375 -7.1875 C 1.4375 -7.113281 1.46875 -7 1.46875 -6.84375 C 1.46875 -6.695312 1.4375 -6.582031 1.375 -6.5 C 1.320312 -6.414062 1.242188 -6.375 1.140625 -6.375 C 0.929688 -6.375 0.828125 -6.53125 0.828125 -6.84375 Z M 0.828125 -6.84375 "/></g></g></g><g fill="#5e17eb" fill-opacity="1"><g transform="translate(205.93886, 56.367674)"><g><path d="M 4.640625 0 L 4.640625 -3.46875 C 4.640625 -4.007812 4.523438 -4.398438 4.296875 -4.640625 C 4.066406 -4.890625 3.710938 -5.015625 3.234375 -5.015625 C 2.597656 -5.015625 2.128906 -4.851562 1.828125 -4.53125 C 1.535156 -4.207031 1.390625 -3.679688 1.390625 -2.953125 L 1.390625 0 L 0.890625 0 L 0.890625 -5.359375 L 1.3125 -5.359375 L 1.40625 -4.625 L 1.4375 -4.625 C 1.78125 -5.175781 2.398438 -5.453125 3.296875 -5.453125 C 4.503906 -5.453125 5.109375 -4.800781 5.109375 -3.5 L 5.109375 0 Z M 4.640625 0 "/></g></g></g><g fill="#5e17eb" fill-opacity="1"><g transform="translate(211.891688, 56.367674)"><g><path d="M 3.0625 0.09375 C 2.28125 0.09375 1.671875 -0.144531 1.234375 -0.625 C 0.804688 -1.101562 0.59375 -1.773438 0.59375 -2.640625 C 0.59375 -3.492188 0.800781 -4.175781 1.21875 -4.6875 C 1.632812 -5.195312 2.203125 -5.453125 2.921875 -5.453125 C 3.546875 -5.453125 4.039062 -5.234375 4.40625 -4.796875 C 4.769531 -4.359375 4.953125 -3.757812 4.953125 -3 L 4.953125 -2.609375 L 1.09375 -2.609375 C 1.101562 -1.878906 1.273438 -1.316406 1.609375 -0.921875 C 1.953125 -0.535156 2.4375 -0.34375 3.0625 -0.34375 C 3.363281 -0.34375 3.628906 -0.363281 3.859375 -0.40625 C 4.097656 -0.445312 4.394531 -0.539062 4.75 -0.6875 L 4.75 -0.234375 C 4.445312 -0.109375 4.164062 -0.0234375 3.90625 0.015625 C 3.65625 0.0664062 3.375 0.09375 3.0625 0.09375 Z M 2.921875 -5.03125 C 2.398438 -5.03125 1.984375 -4.859375 1.671875 -4.515625 C 1.359375 -4.171875 1.175781 -3.679688 1.125 -3.046875 L 4.4375 -3.046875 C 4.4375 -3.671875 4.300781 -4.15625 4.03125 -4.5 C 3.757812 -4.851562 3.390625 -5.03125 2.921875 -5.03125 Z M 2.921875 -5.03125 "/></g></g></g><g fill="#5e17eb" fill-opacity="1"><g transform="translate(217.430578, 56.367674)"><g/></g></g><g fill="#5e17eb" fill-opacity="1"><g transform="translate(220.052188, 56.367674)"><g><path d="M 0.1875 2.421875 C -0.0820312 2.421875 -0.304688 2.378906 -0.484375 2.296875 L -0.484375 1.875 C -0.253906 1.9375 -0.0390625 1.96875 0.15625 1.96875 C 0.644531 1.96875 0.890625 1.679688 0.890625 1.109375 L 0.890625 -5.359375 L 1.390625 -5.359375 L 1.390625 1.046875 C 1.390625 1.484375 1.285156 1.820312 1.078125 2.0625 C 0.867188 2.300781 0.570312 2.421875 0.1875 2.421875 Z M 0.828125 -6.84375 C 0.828125 -7.15625 0.929688 -7.3125 1.140625 -7.3125 C 1.242188 -7.3125 1.320312 -7.269531 1.375 -7.1875 C 1.4375 -7.113281 1.46875 -7 1.46875 -6.84375 C 1.46875 -6.695312 1.4375 -6.582031 1.375 -6.5 C 1.320312 -6.414062 1.242188 -6.375 1.140625 -6.375 C 0.929688 -6.375 0.828125 -6.53125 0.828125 -6.84375 Z M 0.828125 -6.84375 "/></g></g></g><g fill="#5e17eb" fill-opacity="1"><g transform="translate(222.333782, 56.367674)"><g><path d="M 5.328125 -2.6875 C 5.328125 -1.8125 5.113281 -1.128906 4.6875 -0.640625 C 4.269531 -0.148438 3.6875 0.09375 2.9375 0.09375 C 2.46875 0.09375 2.050781 -0.015625 1.6875 -0.234375 C 1.332031 -0.460938 1.0625 -0.789062 0.875 -1.21875 C 0.6875 -1.644531 0.59375 -2.132812 0.59375 -2.6875 C 0.59375 -3.5625 0.800781 -4.238281 1.21875 -4.71875 C 1.644531 -5.207031 2.226562 -5.453125 2.96875 -5.453125 C 3.707031 -5.453125 4.285156 -5.207031 4.703125 -4.71875 C 5.117188 -4.226562 5.328125 -3.550781 5.328125 -2.6875 Z M 1.09375 -2.6875 C 1.09375 -1.945312 1.253906 -1.367188 1.578125 -0.953125 C 1.898438 -0.546875 2.359375 -0.34375 2.953125 -0.34375 C 3.546875 -0.34375 4.003906 -0.546875 4.328125 -0.953125 C 4.648438 -1.367188 4.8125 -1.945312 4.8125 -2.6875 C 4.8125 -3.425781 4.644531 -4 4.3125 -4.40625 C 3.988281 -4.8125 3.535156 -5.015625 2.953125 -5.015625 C 2.359375 -5.015625 1.898438 -4.8125 1.578125 -4.40625 C 1.253906 -4 1.09375 -3.425781 1.09375 -2.6875 Z M 1.09375 -2.6875 "/></g></g></g><g fill="#5e17eb" fill-opacity="1"><g transform="translate(228.247187, 56.367674)"><g><path d="M 3.15625 -5.453125 C 3.90625 -5.453125 4.46875 -5.21875 4.84375 -4.75 C 5.226562 -4.28125 5.421875 -3.59375 5.421875 -2.6875 C 5.421875 -1.789062 5.21875 -1.101562 4.8125 -0.625 C 4.414062 -0.144531 3.859375 0.09375 3.140625 0.09375 C 2.753906 0.09375 2.410156 0.015625 2.109375 -0.140625 C 1.804688 -0.296875 1.566406 -0.519531 1.390625 -0.8125 L 1.34375 -0.8125 L 1.203125 0 L 0.890625 0 L 0.890625 -7.671875 L 1.390625 -7.671875 L 1.390625 -5.734375 C 1.390625 -5.453125 1.378906 -5.1875 1.359375 -4.9375 L 1.34375 -4.53125 L 1.390625 -4.53125 C 1.585938 -4.84375 1.828125 -5.070312 2.109375 -5.21875 C 2.398438 -5.375 2.75 -5.453125 3.15625 -5.453125 Z M 3.15625 -5.015625 C 2.519531 -5.015625 2.066406 -4.832031 1.796875 -4.46875 C 1.523438 -4.113281 1.390625 -3.519531 1.390625 -2.6875 L 1.390625 -2.609375 C 1.390625 -1.796875 1.53125 -1.210938 1.8125 -0.859375 C 2.09375 -0.503906 2.535156 -0.328125 3.140625 -0.328125 C 3.722656 -0.328125 4.160156 -0.53125 4.453125 -0.9375 C 4.753906 -1.351562 4.90625 -1.941406 4.90625 -2.703125 C 4.90625 -4.242188 4.320312 -5.015625 3.15625 -5.015625 Z M 3.15625 -5.015625 "/></g></g></g><g fill="#5e17eb" fill-opacity="1"><g transform="translate(234.254227, 56.367674)"><g/></g></g><g fill="#5e17eb" fill-opacity="1"><g transform="translate(236.875837, 56.367674)"><g><path d="M 1.390625 0 L 0.890625 0 L 0.890625 -7.671875 L 1.390625 -7.671875 Z M 1.390625 0 "/>
</g>
</g>
</g>
    <g fill="#5e17eb" fill-opacity="1">
        <g transform="translate(239.15743, 56.367674)">
            <g><path d="M 1.390625 0 L 0.890625 0 L 0.890625 -5.359375 L 1.390625 -5.359375 Z M 0.828125 -6.84375 C 0.828125 -7.15625 0.929688 -7.3125 1.140625 -7.3125 C 1.242188 -7.3125 1.320312 -7.269531 1.375 -7.1875 C 1.4375 -7.113281 1.46875 -7 1.46875 -6.84375 C 1.46875 -6.695312 1.4375 -6.582031 1.375 -6.5 C 1.320312 -6.414062 1.242188 -6.375 1.140625 -6.375 C 0.929688 -6.375 0.828125 -6.53125 0.828125 -6.84375 Z M 0.828125 -6.84375 "/></g></g></g><g fill="#5e17eb" fill-opacity="1"><g transform="translate(241.439024, 56.367674)"><g><path d="M 4.21875 -1.390625 C 4.21875 -0.910156 4.035156 -0.539062 3.671875 -0.28125 C 3.304688 -0.03125 2.789062 0.09375 2.125 0.09375 C 1.40625 0.09375 0.832031 -0.015625 0.40625 -0.234375 L 0.40625 -0.765625 C 0.945312 -0.492188 1.519531 -0.359375 2.125 -0.359375 C 2.644531 -0.359375 3.039062 -0.441406 3.3125 -0.609375 C 3.59375 -0.785156 3.734375 -1.023438 3.734375 -1.328125 C 3.734375 -1.585938 3.625 -1.8125 3.40625 -2 C 3.1875 -2.1875 2.828125 -2.367188 2.328125 -2.546875 C 1.796875 -2.734375 1.421875 -2.894531 1.203125 -3.03125 C 0.984375 -3.175781 0.816406 -3.335938 0.703125 -3.515625 C 0.597656 -3.691406 0.546875 -3.90625 0.546875 -4.15625 C 0.546875 -4.5625 0.710938 -4.878906 1.046875 -5.109375 C 1.390625 -5.335938 1.863281 -5.453125 2.46875 -5.453125 C 3.039062 -5.453125 3.585938 -5.347656 4.109375 -5.140625 L 3.921875 -4.6875 C 3.398438 -4.90625 2.914062 -5.015625 2.46875 -5.015625 C 2.03125 -5.015625 1.679688 -4.941406 1.421875 -4.796875 C 1.171875 -4.648438 1.046875 -4.453125 1.046875 -4.203125 C 1.046875 -3.921875 1.144531 -3.695312 1.34375 -3.53125 C 1.539062 -3.363281 1.925781 -3.175781 2.5 -2.96875 C 2.988281 -2.789062 3.34375 -2.628906 3.5625 -2.484375 C 3.78125 -2.347656 3.941406 -2.191406 4.046875 -2.015625 C 4.160156 -1.835938 4.21875 -1.628906 4.21875 -1.390625 Z M 4.21875 -1.390625 "/></g></g></g><g fill="#5e17eb" fill-opacity="1"><g transform="translate(246.140182, 56.367674)"><g><path d="M 2.3125 -0.328125 C 2.625 -0.328125 2.894531 -0.351562 3.125 -0.40625 L 3.125 -0.015625 C 2.882812 0.0546875 2.609375 0.09375 2.296875 0.09375 C 1.828125 0.09375 1.476562 -0.03125 1.25 -0.28125 C 1.03125 -0.53125 0.921875 -0.925781 0.921875 -1.46875 L 0.921875 -4.9375 L 0.125 -4.9375 L 0.125 -5.21875 L 0.921875 -5.4375 L 1.15625 -6.65625 L 1.421875 -6.65625 L 1.421875 -5.359375 L 2.984375 -5.359375 L 2.984375 -4.9375 L 1.421875 -4.9375 L 1.421875 -1.546875 C 1.421875 -1.128906 1.488281 -0.820312 1.625 -0.625 C 1.769531 -0.425781 2 -0.328125 2.3125 -0.328125 Z M 2.3125 -0.328125 "/></g></g></g><g fill="#5e17eb" fill-opacity="1"><g transform="translate(249.520678, 56.367674)"><g><path d="M 1.390625 0 L 0.890625 0 L 0.890625 -5.359375 L 1.390625 -5.359375 Z M 0.828125 -6.84375 C 0.828125 -7.15625 0.929688 -7.3125 1.140625 -7.3125 C 1.242188 -7.3125 1.320312 -7.269531 1.375 -7.1875 C 1.4375 -7.113281 1.46875 -7 1.46875 -6.84375 C 1.46875 -6.695312 1.4375 -6.582031 1.375 -6.5 C 1.320312 -6.414062 1.242188 -6.375 1.140625 -6.375 C 0.929688 -6.375 0.828125 -6.53125 0.828125 -6.84375 Z M 0.828125 -6.84375 "/></g></g></g><g fill="#5e17eb" fill-opacity="1"><g transform="translate(251.802272, 56.367674)"><g><path d="M 4.640625 0 L 4.640625 -3.46875 C 4.640625 -4.007812 4.523438 -4.398438 4.296875 -4.640625 C 4.066406 -4.890625 3.710938 -5.015625 3.234375 -5.015625 C 2.597656 -5.015625 2.128906 -4.851562 1.828125 -4.53125 C 1.535156 -4.207031 1.390625 -3.679688 1.390625 -2.953125 L 1.390625 0 L 0.890625 0 L 0.890625 -5.359375 L 1.3125 -5.359375 L 1.40625 -4.625 L 1.4375 -4.625 C 1.78125 -5.175781 2.398438 -5.453125 3.296875 -5.453125 C 4.503906 -5.453125 5.109375 -4.800781 5.109375 -3.5 L 5.109375 0 Z M 4.640625 0 "/></g></g></g><g fill="#5e17eb" fill-opacity="1"><g transform="translate(257.7551, 56.367674)"><g><path d="M 5.078125 -5.359375 L 5.078125 -5.015625 L 3.96875 -4.953125 C 4.257812 -4.578125 4.40625 -4.171875 4.40625 -3.734375 C 4.40625 -3.222656 4.234375 -2.804688 3.890625 -2.484375 C 3.546875 -2.160156 3.085938 -2 2.515625 -2 C 2.273438 -2 2.101562 -2.007812 2 -2.03125 C 1.800781 -1.925781 1.648438 -1.804688 1.546875 -1.671875 C 1.453125 -1.535156 1.40625 -1.390625 1.40625 -1.234375 C 1.40625 -1.054688 1.46875 -0.925781 1.59375 -0.84375 C 1.726562 -0.769531 1.945312 -0.734375 2.25 -0.734375 L 3.1875 -0.734375 C 3.769531 -0.734375 4.210938 -0.613281 4.515625 -0.375 C 4.828125 -0.144531 4.984375 0.195312 4.984375 0.65625 C 4.984375 1.21875 4.753906 1.648438 4.296875 1.953125 C 3.835938 2.265625 3.1875 2.421875 2.34375 2.421875 C 1.664062 2.421875 1.140625 2.289062 0.765625 2.03125 C 0.398438 1.769531 0.21875 1.410156 0.21875 0.953125 C 0.21875 0.585938 0.332031 0.28125 0.5625 0.03125 C 0.789062 -0.207031 1.101562 -0.375 1.5 -0.46875 C 1.332031 -0.53125 1.203125 -0.625 1.109375 -0.75 C 1.015625 -0.882812 0.96875 -1.03125 0.96875 -1.1875 C 0.96875 -1.550781 1.191406 -1.867188 1.640625 -2.140625 C 1.328125 -2.265625 1.082031 -2.460938 0.90625 -2.734375 C 0.738281 -3.015625 0.65625 -3.332031 0.65625 -3.6875 C 0.65625 -4.21875 0.820312 -4.644531 1.15625 -4.96875 C 1.5 -5.289062 1.960938 -5.453125 2.546875 -5.453125 C 2.898438 -5.453125 3.171875 -5.421875 3.359375 -5.359375 Z M 0.734375 0.90625 C 0.734375 1.644531 1.28125 2.015625 2.375 2.015625 C 3.78125 2.015625 4.484375 1.566406 4.484375 0.671875 C 4.484375 0.347656 4.375 0.113281 4.15625 -0.03125 C 3.9375 -0.175781 3.582031 -0.25 3.09375 -0.25 L 2.21875 -0.25 C 1.226562 -0.25 0.734375 0.132812 0.734375 0.90625 Z M 1.140625 -3.6875 C 1.140625 -3.269531 1.265625 -2.945312 1.515625 -2.71875 C 1.773438 -2.488281 2.113281 -2.375 2.53125 -2.375 C 2.976562 -2.375 3.320312 -2.488281 3.5625 -2.71875 C 3.800781 -2.945312 3.921875 -3.273438 3.921875 -3.703125 C 3.921875 -4.160156 3.796875 -4.503906 3.546875 -4.734375 C 3.304688 -4.960938 2.96875 -5.078125 2.53125 -5.078125 C 2.09375 -5.078125 1.75 -4.953125 1.5 -4.703125 C 1.257812 -4.460938 1.140625 -4.125 1.140625 -3.6875 Z M 1.140625 -3.6875 "/>
    </g>
    </g>
    </g>
</svg>