<svg xmlns="http://www.w3.org/2000/svg" xmlns:xlink="http://www.w3.org/1999/xlink" width="500" zoomAndPan="magnify" viewBox="0 0 375 374.999991" height="500" preserveAspectRatio="xMidYMid meet" version="1.0"><defs><g/><clipPath id="d750b38a7c"><path d="M 126 63 L 253.523438 63 L 253.523438 238 L 126 238 Z M 126 63 " clip-rule="nonzero"/></clipPath></defs><g clip-path="url(#d750b38a7c)"><path fill="#2d3557" d="M 253.261719 170.820312 C 253.226562 170.113281 253.121094 169.414062 252.949219 168.726562 C 252.773438 168.042969 252.535156 167.378906 252.230469 166.738281 C 251.925781 166.097656 251.5625 165.492188 251.140625 164.925781 C 250.714844 164.355469 250.238281 163.835938 249.710938 163.363281 C 249.1875 162.886719 248.617188 162.46875 248.007812 162.109375 C 247.398438 161.746094 246.757812 161.449219 246.089844 161.214844 C 245.421875 160.980469 244.734375 160.8125 244.035156 160.714844 C 243.332031 160.613281 242.628906 160.585938 241.917969 160.625 C 241.210938 160.664062 240.515625 160.773438 239.828125 160.953125 C 239.144531 161.128906 238.480469 161.375 237.84375 161.683594 C 237.207031 161.992188 236.605469 162.359375 236.039062 162.789062 C 235.472656 163.21875 234.957031 163.695312 234.488281 164.226562 C 234.015625 164.757812 233.601562 165.328125 233.246094 165.941406 C 232.890625 166.554688 232.597656 167.195312 232.367188 167.867188 C 232.136719 168.535156 231.976562 169.222656 231.878906 169.925781 C 231.785156 170.628906 231.761719 171.332031 231.808594 172.042969 C 231.851562 172.824219 231.871094 173.621094 231.871094 174.417969 C 231.871094 175.242188 231.847656 176.0625 231.800781 176.886719 C 231.753906 177.710938 231.679688 178.53125 231.582031 179.347656 C 231.488281 180.167969 231.367188 180.980469 231.222656 181.792969 C 231.078125 182.605469 230.910156 183.410156 230.71875 184.210938 C 230.527344 185.011719 230.308594 185.808594 230.070312 186.597656 C 229.832031 187.382812 229.570312 188.164062 229.285156 188.9375 C 229 189.710938 228.691406 190.476562 228.363281 191.230469 C 228.03125 191.984375 227.679688 192.730469 227.304688 193.464844 C 226.929688 194.199219 226.535156 194.921875 226.117188 195.632812 C 225.703125 196.34375 225.265625 197.039062 224.804688 197.726562 C 224.347656 198.410156 223.871094 199.082031 223.371094 199.738281 C 222.875 200.394531 222.359375 201.035156 221.824219 201.664062 C 221.289062 202.289062 220.734375 202.898438 220.164062 203.492188 C 219.589844 204.085938 219.003906 204.660156 218.398438 205.21875 C 217.792969 205.78125 217.171875 206.320312 216.53125 206.84375 C 215.894531 207.363281 215.242188 207.867188 214.574219 208.351562 C 213.910156 208.835938 213.226562 209.296875 212.535156 209.742188 C 211.839844 210.183594 211.132812 210.609375 210.414062 211.007812 C 209.691406 211.410156 208.960938 211.792969 208.21875 212.148438 C 207.480469 212.507812 206.726562 212.84375 205.964844 213.160156 C 205.203125 213.472656 204.433594 213.765625 203.652344 214.035156 C 202.875 214.300781 202.089844 214.546875 201.296875 214.769531 C 200.503906 214.992188 199.703125 215.191406 198.898438 215.367188 C 198.09375 215.542969 197.28125 215.691406 196.46875 215.820312 C 195.65625 215.949219 194.835938 216.050781 194.015625 216.128906 C 193.199219 216.207031 192.375 216.261719 191.550781 216.292969 C 190.730469 216.324219 189.90625 216.332031 189.082031 216.3125 C 188.257812 216.296875 187.433594 216.253906 186.613281 216.1875 C 185.792969 216.121094 184.972656 216.027344 184.15625 215.914062 C 183.339844 215.800781 182.53125 215.660156 181.722656 215.496094 C 180.914062 215.335938 180.113281 215.148438 179.316406 214.9375 C 178.519531 214.726562 177.730469 214.492188 176.945312 214.238281 C 176.164062 213.980469 175.386719 213.699219 174.621094 213.398438 C 173.855469 213.09375 173.097656 212.769531 172.351562 212.421875 C 171.605469 212.078125 170.867188 211.707031 170.140625 211.316406 C 169.417969 210.925781 168.703125 210.515625 168.003906 210.082031 C 167.300781 209.648438 166.613281 209.195312 165.9375 208.722656 C 165.265625 208.25 164.605469 207.753906 163.960938 207.242188 C 163.3125 206.730469 162.683594 206.199219 162.070312 205.648438 C 161.457031 205.101562 160.859375 204.535156 160.277344 203.949219 C 159.699219 203.363281 159.136719 202.761719 158.589844 202.144531 C 158.046875 201.527344 157.519531 200.894531 157.011719 200.242188 C 156.503906 199.59375 156.015625 198.929688 155.546875 198.253906 C 155.078125 197.574219 154.632812 196.882812 154.203125 196.179688 C 153.777344 195.476562 153.371094 194.757812 152.984375 194.03125 C 152.597656 193.304688 152.234375 192.5625 151.894531 191.8125 C 151.550781 191.0625 151.230469 190.304688 150.933594 189.535156 C 150.636719 188.765625 150.363281 187.992188 150.113281 187.207031 C 149.863281 186.421875 149.636719 185.628906 149.429688 184.832031 C 149.226562 184.03125 149.046875 183.230469 148.890625 182.421875 C 148.730469 181.613281 148.597656 180.796875 148.492188 179.980469 C 148.382812 179.164062 148.296875 178.347656 148.234375 177.523438 C 148.175781 176.703125 148.140625 175.878906 148.128906 175.054688 C 148.117188 174.230469 148.128906 173.410156 148.164062 172.585938 C 148.203125 171.761719 148.261719 170.941406 148.347656 170.121094 C 148.433594 169.300781 148.542969 168.484375 148.675781 167.671875 C 148.808594 166.859375 148.964844 166.050781 149.148438 165.246094 C 149.328125 164.441406 149.53125 163.644531 149.761719 162.851562 C 149.988281 162.0625 150.238281 161.277344 150.515625 160.5 C 150.789062 159.722656 151.085938 158.953125 151.40625 158.195312 C 151.726562 157.4375 152.066406 156.6875 152.433594 155.949219 C 152.796875 155.207031 153.179688 154.480469 153.589844 153.765625 C 153.996094 153.046875 154.421875 152.34375 154.871094 151.652344 C 155.320312 150.960938 155.789062 150.285156 156.277344 149.621094 C 156.765625 148.957031 157.273438 148.308594 157.800781 147.675781 C 158.328125 147.042969 158.871094 146.425781 159.4375 145.824219 C 160 145.222656 160.578125 144.636719 161.175781 144.070312 C 161.777344 143.503906 162.390625 142.953125 163.019531 142.421875 C 163.648438 141.890625 164.296875 141.378906 164.957031 140.886719 C 165.617188 140.394531 166.289062 139.921875 166.980469 139.46875 C 167.667969 139.015625 168.367188 138.582031 169.082031 138.171875 C 169.796875 137.761719 170.519531 137.371094 171.257812 137 C 171.996094 136.632812 172.742188 136.285156 173.5 135.960938 C 174.257812 135.636719 175.023438 135.335938 175.796875 135.054688 C 176.574219 134.777344 177.355469 134.519531 178.144531 134.285156 C 178.9375 134.054688 179.734375 133.84375 180.535156 133.65625 C 181.339844 133.472656 182.144531 133.308594 182.957031 133.171875 C 183.769531 133.03125 184.585938 132.917969 185.40625 132.828125 C 186.222656 132.738281 187.046875 132.671875 187.867188 132.628906 C 188.691406 132.585938 189.515625 132.570312 190.339844 132.574219 C 191.164062 132.582031 191.984375 132.613281 192.808594 132.667969 C 193.628906 132.722656 194.449219 132.804688 195.265625 132.90625 C 196.085938 133.011719 196.898438 133.140625 197.707031 133.289062 C 198.519531 133.441406 199.324219 133.617188 200.121094 133.816406 C 200.921875 134.015625 201.714844 134.238281 202.5 134.484375 C 203.289062 134.730469 204.066406 135 204.835938 135.292969 C 205.605469 135.585938 206.367188 135.898438 207.121094 136.234375 C 207.871094 136.574219 208.613281 136.929688 209.34375 137.3125 C 210.074219 137.691406 210.792969 138.09375 211.5 138.519531 C 212.207031 138.941406 212.902344 139.382812 213.582031 139.847656 C 214.265625 140.3125 214.929688 140.796875 215.582031 141.300781 C 216.234375 141.804688 216.871094 142.324219 217.492188 142.867188 C 218.113281 143.40625 218.71875 143.964844 219.308594 144.542969 C 219.898438 145.121094 220.46875 145.714844 221.019531 146.324219 C 221.574219 146.933594 222.109375 147.5625 222.625 148.203125 C 223.140625 148.84375 223.640625 149.503906 224.117188 150.171875 C 224.527344 150.746094 224.988281 151.277344 225.5 151.761719 C 226.015625 152.246094 226.570312 152.671875 227.167969 153.046875 C 227.765625 153.421875 228.394531 153.734375 229.054688 153.984375 C 229.710938 154.234375 230.390625 154.417969 231.085938 154.535156 C 231.78125 154.652344 232.480469 154.703125 233.1875 154.679688 C 233.890625 154.660156 234.585938 154.570312 235.273438 154.414062 C 235.960938 154.253906 236.628906 154.03125 237.269531 153.742188 C 237.914062 153.453125 238.523438 153.105469 239.097656 152.695312 C 239.671875 152.289062 240.203125 151.828125 240.6875 151.3125 C 241.167969 150.800781 241.597656 150.246094 241.972656 149.648438 C 242.347656 149.050781 242.660156 148.421875 242.910156 147.761719 C 243.164062 147.101562 243.347656 146.425781 243.464844 145.730469 C 243.582031 145.035156 243.628906 144.335938 243.609375 143.628906 C 243.589844 142.925781 243.5 142.230469 243.34375 141.542969 C 243.183594 140.855469 242.960938 140.1875 242.671875 139.542969 C 242.386719 138.902344 242.035156 138.292969 241.628906 137.71875 C 239.375 134.554688 236.851562 131.625 234.0625 128.929688 C 231.273438 126.230469 228.257812 123.808594 225.023438 121.660156 C 221.789062 119.515625 218.386719 117.679688 214.816406 116.15625 C 211.246094 114.632812 207.566406 113.449219 203.777344 112.597656 L 221.242188 77.167969 C 221.519531 76.605469 221.738281 76.023438 221.902344 75.414062 C 222.0625 74.808594 222.164062 74.195312 222.207031 73.566406 C 222.25 72.941406 222.226562 72.316406 222.148438 71.695312 C 222.066406 71.074219 221.921875 70.464844 221.722656 69.871094 C 221.519531 69.277344 221.261719 68.707031 220.949219 68.164062 C 220.636719 67.621094 220.273438 67.113281 219.859375 66.640625 C 219.445312 66.167969 218.988281 65.742188 218.492188 65.359375 C 217.996094 64.976562 217.464844 64.648438 216.902344 64.371094 C 216.339844 64.09375 215.753906 63.871094 215.148438 63.710938 C 214.542969 63.546875 213.925781 63.445312 213.300781 63.402344 C 212.675781 63.363281 212.050781 63.382812 211.429688 63.464844 C 210.804688 63.546875 210.199219 63.6875 209.605469 63.890625 C 209.007812 64.089844 208.441406 64.347656 207.898438 64.660156 C 207.355469 64.976562 206.847656 65.339844 206.375 65.75 C 205.902344 66.164062 205.476562 66.621094 205.09375 67.117188 C 204.710938 67.617188 204.382812 68.144531 204.101562 68.710938 L 179.0625 112.035156 L 178.675781 112.105469 L 187.246094 78.605469 C 187.449219 77.996094 187.589844 77.375 187.664062 76.738281 C 187.742188 76.101562 187.753906 75.460938 187.699219 74.820312 C 187.648438 74.183594 187.53125 73.554688 187.351562 72.9375 C 187.171875 72.320312 186.933594 71.730469 186.636719 71.160156 C 186.335938 70.59375 185.984375 70.0625 185.578125 69.5625 C 185.175781 69.066406 184.722656 68.617188 184.226562 68.210938 C 183.730469 67.804688 183.195312 67.449219 182.628906 67.152344 C 182.0625 66.851562 181.46875 66.613281 180.851562 66.433594 C 180.238281 66.253906 179.609375 66.136719 178.96875 66.085938 C 178.332031 66.03125 177.691406 66.042969 177.054688 66.117188 C 176.417969 66.195312 175.792969 66.332031 175.183594 66.535156 C 174.574219 66.734375 173.992188 66.996094 173.4375 67.3125 C 172.878906 67.632812 172.359375 68.003906 171.878906 68.425781 C 171.394531 68.851562 170.960938 69.316406 170.570312 69.828125 C 170.183594 70.339844 169.851562 70.882812 169.574219 71.460938 C 169.292969 72.039062 169.078125 72.640625 168.917969 73.261719 L 152.980469 121.988281 L 152.980469 88.773438 C 153.015625 88.136719 152.984375 87.503906 152.894531 86.875 C 152.800781 86.242188 152.648438 85.628906 152.433594 85.03125 C 152.21875 84.429688 151.945312 83.859375 151.617188 83.316406 C 151.285156 82.769531 150.90625 82.261719 150.476562 81.792969 C 150.042969 81.328125 149.570312 80.90625 149.058594 80.53125 C 148.542969 80.15625 147.996094 79.835938 147.417969 79.570312 C 146.835938 79.308594 146.238281 79.101562 145.617188 78.957031 C 145 78.8125 144.371094 78.730469 143.734375 78.710938 C 143.097656 78.691406 142.464844 78.734375 141.839844 78.839844 C 141.210938 78.949219 140.601562 79.117188 140.007812 79.34375 C 139.414062 79.574219 138.847656 79.859375 138.3125 80.203125 C 137.773438 80.542969 137.277344 80.933594 136.816406 81.375 C 136.359375 81.816406 135.949219 82.300781 135.585938 82.824219 C 135.222656 83.347656 134.917969 83.902344 134.667969 84.484375 C 134.414062 85.070312 134.222656 85.675781 134.09375 86.296875 C 133.960938 86.921875 133.894531 87.550781 133.890625 88.1875 L 132.023438 148.863281 C 131.546875 149.9375 131.105469 151.023438 130.691406 152.121094 C 130.277344 153.222656 129.894531 154.332031 129.542969 155.449219 C 129.191406 156.570312 128.871094 157.699219 128.582031 158.839844 C 128.292969 159.976562 128.039062 161.121094 127.8125 162.273438 C 127.585938 163.425781 127.394531 164.585938 127.234375 165.746094 C 127.074219 166.910156 126.945312 168.078125 126.847656 169.246094 C 126.753906 170.417969 126.6875 171.589844 126.65625 172.761719 C 126.628906 173.9375 126.628906 175.109375 126.664062 176.285156 C 126.699219 177.457031 126.765625 178.628906 126.863281 179.800781 C 126.964844 180.96875 127.097656 182.136719 127.261719 183.296875 C 127.425781 184.460938 127.621094 185.617188 127.851562 186.769531 C 128.078125 187.921875 128.339844 189.066406 128.632812 190.203125 C 128.925781 191.339844 129.246094 192.46875 129.601562 193.585938 C 129.957031 194.707031 130.34375 195.816406 130.761719 196.914062 C 131.175781 198.011719 131.625 199.097656 132.101562 200.167969 C 132.578125 201.242188 133.085938 202.300781 133.621094 203.34375 C 134.15625 204.390625 134.722656 205.417969 135.3125 206.433594 C 135.90625 207.445312 136.527344 208.441406 137.175781 209.421875 C 137.824219 210.398438 138.5 211.359375 139.203125 212.300781 C 139.902344 213.242188 140.632812 214.164062 141.382812 215.0625 C 142.136719 215.964844 142.914062 216.84375 143.71875 217.703125 C 144.519531 218.558594 145.34375 219.394531 146.191406 220.207031 C 147.039062 221.015625 147.910156 221.804688 148.804688 222.566406 C 149.695312 223.332031 150.609375 224.070312 151.539062 224.78125 C 152.472656 225.496094 153.425781 226.179688 154.398438 226.839844 C 155.367188 227.5 156.359375 228.132812 157.363281 228.738281 C 158.371094 229.34375 159.394531 229.917969 160.429688 230.464844 C 161.46875 231.015625 162.523438 231.53125 163.589844 232.023438 C 164.65625 232.511719 165.738281 232.96875 166.832031 233.398438 C 167.921875 233.828125 169.027344 234.226562 170.140625 234.597656 C 171.257812 234.964844 172.382812 235.300781 173.515625 235.605469 C 174.648438 235.910156 175.789062 236.183594 176.9375 236.425781 C 178.089844 236.667969 179.242188 236.878906 180.402344 237.054688 C 181.5625 237.234375 182.730469 237.378906 183.898438 237.492188 C 185.066406 237.605469 186.238281 237.6875 187.410156 237.734375 C 188.582031 237.78125 189.757812 237.796875 190.929688 237.78125 C 192.105469 237.761719 193.277344 237.714844 194.449219 237.628906 C 195.621094 237.546875 196.789062 237.433594 197.953125 237.285156 C 199.117188 237.136719 200.277344 236.957031 201.433594 236.746094 C 202.585938 236.535156 203.734375 236.289062 204.878906 236.015625 C 206.019531 235.738281 207.152344 235.433594 208.273438 235.09375 C 209.398438 234.753906 210.511719 234.386719 211.617188 233.984375 C 212.722656 233.582031 213.8125 233.152344 214.890625 232.691406 C 215.972656 232.230469 217.039062 231.738281 218.089844 231.21875 C 219.144531 230.699219 220.179688 230.148438 221.203125 229.570312 C 222.222656 228.992188 223.230469 228.386719 224.21875 227.75 C 225.207031 227.117188 226.175781 226.457031 227.125 225.769531 C 228.078125 225.082031 229.007812 224.367188 229.921875 223.625 C 230.832031 222.886719 231.722656 222.121094 232.59375 221.332031 C 233.460938 220.542969 234.308594 219.730469 235.132812 218.894531 C 235.957031 218.058594 236.757812 217.199219 237.53125 216.320312 C 238.308594 215.4375 239.0625 214.535156 239.785156 213.613281 C 240.511719 212.691406 241.214844 211.75 241.886719 210.785156 C 242.5625 209.824219 243.207031 208.84375 243.828125 207.847656 C 244.445312 206.851562 245.035156 205.835938 245.601562 204.804688 C 246.164062 203.777344 246.695312 202.730469 247.203125 201.671875 C 247.707031 200.609375 248.183594 199.539062 248.625 198.449219 C 249.070312 197.363281 249.488281 196.265625 249.871094 195.15625 C 250.253906 194.046875 250.609375 192.929688 250.929688 191.800781 C 251.253906 190.667969 251.542969 189.53125 251.800781 188.386719 C 252.058594 187.242188 252.285156 186.089844 252.480469 184.933594 C 252.675781 183.773438 252.839844 182.613281 252.96875 181.445312 C 253.097656 180.277344 253.195312 179.109375 253.261719 177.9375 C 253.328125 176.765625 253.359375 175.589844 253.359375 174.417969 C 253.359375 173.210938 253.332031 172.011719 253.261719 170.820312 Z M 253.261719 170.820312 " fill-opacity="1" fill-rule="nonzero"/></g><path fill="#5e17eb" d="M 189.992188 136.003906 C 187.191406 136.007812 184.429688 136.316406 181.699219 136.925781 L 186.699219 145.089844 L 176.828125 196.550781 L 189.996094 208.488281 L 203.164062 196.550781 L 193.296875 145.089844 L 198.292969 136.925781 C 195.558594 136.316406 192.792969 136.007812 189.992188 136.003906 Z M 189.992188 136.003906 " fill-opacity="1" fill-rule="nonzero"/><g fill="#2d3557" fill-opacity="1"><g transform="translate(106.469666, 282.449695)"><g><path d="M 31.046875 0 L 20.671875 0 L 9.984375 -20.640625 L 9.796875 -20.640625 C 10.046875 -17.390625 10.171875 -14.910156 10.171875 -13.203125 L 10.171875 0 L 3.171875 0 L 3.171875 -29.296875 L 13.5 -29.296875 L 24.15625 -8.9375 L 24.28125 -8.9375 C 24.09375 -11.882812 24 -14.253906 24 -16.046875 L 24 -29.296875 L 31.046875 -29.296875 Z M 31.046875 0 "/></g></g></g><g fill="#2d3557" fill-opacity="1"><g transform="translate(140.692205, 282.449695)"><g><path d="M 10.578125 0 L 2.75 0 L 2.75 -22.703125 L 10.578125 -22.703125 Z M 2.546875 -28.34375 C 2.546875 -29.519531 2.875 -30.394531 3.53125 -30.96875 C 4.1875 -31.539062 5.238281 -31.828125 6.6875 -31.828125 C 8.144531 -31.828125 9.207031 -31.535156 9.875 -30.953125 C 10.539062 -30.367188 10.875 -29.5 10.875 -28.34375 C 10.875 -26.050781 9.476562 -24.90625 6.6875 -24.90625 C 3.925781 -24.90625 2.546875 -26.050781 2.546875 -28.34375 Z M 2.546875 -28.34375 "/></g></g></g><g fill="#2d3557" fill-opacity="1"><g transform="translate(154.036591, 282.449695)"><g><path d="M 13.046875 0.40625 C 9.328125 0.40625 6.507812 -0.59375 4.59375 -2.59375 C 2.675781 -4.601562 1.71875 -7.484375 1.71875 -11.234375 C 1.71875 -15.003906 2.753906 -17.921875 4.828125 -19.984375 C 6.898438 -22.054688 9.84375 -23.09375 13.65625 -23.09375 C 16.289062 -23.09375 18.769531 -22.519531 21.09375 -21.375 L 18.796875 -15.59375 C 17.847656 -16 16.972656 -16.328125 16.171875 -16.578125 C 15.367188 -16.828125 14.53125 -16.953125 13.65625 -16.953125 C 12.394531 -16.953125 11.414062 -16.457031 10.71875 -15.46875 C 10.019531 -14.476562 9.671875 -13.082031 9.671875 -11.28125 C 9.671875 -7.644531 11.015625 -5.828125 13.703125 -5.828125 C 16.003906 -5.828125 18.207031 -6.492188 20.3125 -7.828125 L 20.3125 -1.609375 C 18.300781 -0.265625 15.878906 0.40625 13.046875 0.40625 Z M 13.046875 0.40625 "/></g></g></g><g fill="#2d3557" fill-opacity="1"><g transform="translate(176.157014, 282.449695)"><g><path d="M 13.65625 0.40625 C 9.882812 0.40625 6.953125 -0.597656 4.859375 -2.609375 C 2.765625 -4.617188 1.71875 -7.484375 1.71875 -11.203125 C 1.71875 -15.035156 2.6875 -17.972656 4.625 -20.015625 C 6.5625 -22.066406 9.328125 -23.09375 12.921875 -23.09375 C 16.335938 -23.09375 18.976562 -22.203125 20.84375 -20.421875 C 22.707031 -18.640625 23.640625 -16.070312 23.640625 -12.71875 L 23.640625 -9.234375 L 9.640625 -9.234375 C 9.691406 -7.960938 10.15625 -6.96875 11.03125 -6.25 C 11.90625 -5.53125 13.097656 -5.171875 14.609375 -5.171875 C 15.984375 -5.171875 17.25 -5.300781 18.40625 -5.5625 C 19.5625 -5.820312 20.8125 -6.265625 22.15625 -6.890625 L 22.15625 -1.265625 C 20.925781 -0.640625 19.65625 -0.207031 18.34375 0.03125 C 17.039062 0.28125 15.476562 0.40625 13.65625 0.40625 Z M 13.203125 -17.765625 C 12.285156 -17.765625 11.515625 -17.472656 10.890625 -16.890625 C 10.265625 -16.316406 9.898438 -15.410156 9.796875 -14.171875 L 16.53125 -14.171875 C 16.5 -15.265625 16.1875 -16.132812 15.59375 -16.78125 C 15 -17.4375 14.203125 -17.765625 13.203125 -17.765625 Z M 13.203125 -17.765625 "/></g></g></g><g fill="#2d3557" fill-opacity="1"><g transform="translate(201.523369, 282.449695)"><g><path d="M 0.859375 9.203125 C -0.578125 9.203125 -1.945312 9.0625 -3.25 8.78125 L -3.25 2.625 C -2.820312 2.707031 -2.363281 2.796875 -1.875 2.890625 C -1.394531 2.992188 -0.878906 3.046875 -0.328125 3.046875 C 0.984375 3.046875 1.921875 2.648438 2.484375 1.859375 C 3.046875 1.078125 3.328125 -0.269531 3.328125 -2.1875 L 3.328125 -29.296875 L 11.28125 -29.296875 L 11.28125 -2.859375 C 11.28125 1.097656 10.410156 4.097656 8.671875 6.140625 C 6.941406 8.179688 4.335938 9.203125 0.859375 9.203125 Z M 0.859375 9.203125 "/></g></g></g><g fill="#2d3557" fill-opacity="1"><g transform="translate(215.969769, 282.449695)"><g><path d="M 24.375 -11.40625 C 24.375 -7.6875 23.375 -4.785156 21.375 -2.703125 C 19.382812 -0.628906 16.59375 0.40625 13 0.40625 C 9.550781 0.40625 6.804688 -0.65625 4.765625 -2.78125 C 2.734375 -4.90625 1.71875 -7.78125 1.71875 -11.40625 C 1.71875 -15.101562 2.71875 -17.972656 4.71875 -20.015625 C 6.71875 -22.066406 9.519531 -23.09375 13.125 -23.09375 C 15.351562 -23.09375 17.320312 -22.617188 19.03125 -21.671875 C 20.738281 -20.722656 22.054688 -19.363281 22.984375 -17.59375 C 23.910156 -15.832031 24.375 -13.769531 24.375 -11.40625 Z M 9.671875 -11.40625 C 9.671875 -9.445312 9.929688 -7.957031 10.453125 -6.9375 C 10.972656 -5.914062 11.847656 -5.40625 13.078125 -5.40625 C 14.296875 -5.40625 15.15625 -5.914062 15.65625 -6.9375 C 16.15625 -7.957031 16.40625 -9.445312 16.40625 -11.40625 C 16.40625 -13.34375 16.148438 -14.800781 15.640625 -15.78125 C 15.140625 -16.769531 14.273438 -17.265625 13.046875 -17.265625 C 11.835938 -17.265625 10.972656 -16.773438 10.453125 -15.796875 C 9.929688 -14.816406 9.671875 -13.351562 9.671875 -11.40625 Z M 9.671875 -11.40625 "/></g></g></g><g fill="#2d3557" fill-opacity="1"><g transform="translate(242.117552, 282.449695)"><g><path d="M 16.5625 -23.09375 C 19.039062 -23.09375 21.003906 -22.054688 22.453125 -19.984375 C 23.898438 -17.921875 24.625 -15.0625 24.625 -11.40625 C 24.625 -7.71875 23.890625 -4.828125 22.421875 -2.734375 C 20.960938 -0.640625 18.929688 0.40625 16.328125 0.40625 C 15.484375 0.40625 14.734375 0.3125 14.078125 0.125 C 13.429688 -0.0507812 12.847656 -0.300781 12.328125 -0.625 C 11.816406 -0.945312 11.21875 -1.476562 10.53125 -2.21875 L 10.0625 -2.21875 L 8.8125 0 L 2.703125 0 L 2.703125 -31.171875 L 10.53125 -31.171875 L 10.53125 -24.125 C 10.53125 -23.28125 10.441406 -21.832031 10.265625 -19.78125 L 10.53125 -19.78125 C 11.300781 -20.945312 12.179688 -21.789062 13.171875 -22.3125 C 14.171875 -22.832031 15.300781 -23.09375 16.5625 -23.09375 Z M 13.703125 -16.953125 C 12.609375 -16.953125 11.804688 -16.570312 11.296875 -15.8125 C 10.785156 -15.050781 10.53125 -13.851562 10.53125 -12.21875 L 10.53125 -11.125 C 10.53125 -9.257812 10.785156 -7.921875 11.296875 -7.109375 C 11.804688 -6.304688 12.632812 -5.90625 13.78125 -5.90625 C 14.707031 -5.90625 15.414062 -6.375 15.90625 -7.3125 C 16.40625 -8.257812 16.65625 -9.648438 16.65625 -11.484375 C 16.65625 -15.128906 15.671875 -16.953125 13.703125 -16.953125 Z M 13.703125 -16.953125 "/></g></g></g><g fill="#5e17eb" fill-opacity="1"><g transform="translate(108.808591, 310.682471)"><g><path d="M 7.359375 0 L 6.765625 0 L 1.75 -7.53125 L 1.703125 -7.53125 C 1.742188 -6.632812 1.765625 -5.957031 1.765625 -5.5 L 1.765625 0 L 1.203125 0 L 1.203125 -8.484375 L 1.796875 -8.484375 L 6.8125 -0.96875 L 6.84375 -0.96875 C 6.8125 -1.65625 6.796875 -2.316406 6.796875 -2.953125 L 6.796875 -8.484375 L 7.359375 -8.484375 Z M 7.359375 0 "/></g></g></g><g fill="#5e17eb" fill-opacity="1"><g transform="translate(117.369927, 310.682471)"><g><path d="M 1.546875 -6.296875 L 1.546875 -2.21875 C 1.546875 -1.582031 1.679688 -1.117188 1.953125 -0.828125 C 2.222656 -0.546875 2.632812 -0.40625 3.1875 -0.40625 C 3.9375 -0.40625 4.488281 -0.59375 4.84375 -0.96875 C 5.195312 -1.351562 5.375 -1.972656 5.375 -2.828125 L 5.375 -6.296875 L 5.953125 -6.296875 L 5.953125 0 L 5.46875 0 L 5.359375 -0.875 L 5.328125 -0.875 C 4.910156 -0.21875 4.179688 0.109375 3.140625 0.109375 C 1.703125 0.109375 0.984375 -0.65625 0.984375 -2.1875 L 0.984375 -6.296875 Z M 1.546875 -6.296875 "/></g></g></g><g fill="#5e17eb" fill-opacity="1"><g transform="translate(124.372017, 310.682471)"><g><path d="M 8.921875 0 L 8.921875 -4.140625 C 8.921875 -4.753906 8.800781 -5.203125 8.5625 -5.484375 C 8.320312 -5.765625 7.957031 -5.90625 7.46875 -5.90625 C 6.820312 -5.90625 6.34375 -5.722656 6.03125 -5.359375 C 5.726562 -5.003906 5.578125 -4.445312 5.578125 -3.6875 L 5.578125 0 L 4.984375 0 L 4.984375 -4.3125 C 4.984375 -5.375 4.5 -5.90625 3.53125 -5.90625 C 2.863281 -5.90625 2.378906 -5.710938 2.078125 -5.328125 C 1.773438 -4.941406 1.625 -4.328125 1.625 -3.484375 L 1.625 0 L 1.0625 0 L 1.0625 -6.296875 L 1.53125 -6.296875 L 1.65625 -5.4375 L 1.6875 -5.4375 C 1.863281 -5.75 2.109375 -5.988281 2.421875 -6.15625 C 2.742188 -6.332031 3.097656 -6.421875 3.484375 -6.421875 C 4.484375 -6.421875 5.125 -6.050781 5.40625 -5.3125 L 5.421875 -5.3125 C 5.628906 -5.664062 5.90625 -5.9375 6.25 -6.125 C 6.59375 -6.320312 6.988281 -6.421875 7.4375 -6.421875 C 8.125 -6.421875 8.640625 -6.238281 8.984375 -5.875 C 9.328125 -5.507812 9.5 -4.925781 9.5 -4.125 L 9.5 0 Z M 8.921875 0 "/></g></g></g><g fill="#5e17eb" fill-opacity="1"><g transform="translate(134.851966, 310.682471)"><g><path d="M 3.71875 -6.421875 C 4.59375 -6.421875 5.253906 -6.144531 5.703125 -5.59375 C 6.148438 -5.039062 6.375 -4.226562 6.375 -3.15625 C 6.375 -2.113281 6.140625 -1.304688 5.671875 -0.734375 C 5.203125 -0.171875 4.539062 0.109375 3.6875 0.109375 C 3.238281 0.109375 2.832031 0.0195312 2.46875 -0.15625 C 2.113281 -0.34375 1.832031 -0.609375 1.625 -0.953125 L 1.578125 -0.953125 L 1.421875 0 L 1.0625 0 L 1.0625 -9.015625 L 1.625 -9.015625 L 1.625 -6.75 C 1.625 -6.414062 1.617188 -6.101562 1.609375 -5.8125 L 1.59375 -5.328125 L 1.625 -5.328125 C 1.863281 -5.703125 2.148438 -5.976562 2.484375 -6.15625 C 2.828125 -6.332031 3.238281 -6.421875 3.71875 -6.421875 Z M 3.703125 -5.90625 C 2.960938 -5.90625 2.429688 -5.691406 2.109375 -5.265625 C 1.785156 -4.835938 1.625 -4.132812 1.625 -3.15625 L 1.625 -3.0625 C 1.625 -2.113281 1.789062 -1.429688 2.125 -1.015625 C 2.457031 -0.597656 2.976562 -0.390625 3.6875 -0.390625 C 4.375 -0.390625 4.890625 -0.628906 5.234375 -1.109375 C 5.585938 -1.597656 5.765625 -2.285156 5.765625 -3.171875 C 5.765625 -4.992188 5.078125 -5.90625 3.703125 -5.90625 Z M 3.703125 -5.90625 "/></g></g></g><g fill="#5e17eb" fill-opacity="1"><g transform="translate(141.917823, 310.682471)"><g><path d="M 3.59375 0.109375 C 2.6875 0.109375 1.972656 -0.171875 1.453125 -0.734375 C 0.941406 -1.296875 0.6875 -2.085938 0.6875 -3.109375 C 0.6875 -4.109375 0.929688 -4.910156 1.421875 -5.515625 C 1.921875 -6.117188 2.59375 -6.421875 3.4375 -6.421875 C 4.175781 -6.421875 4.757812 -6.160156 5.1875 -5.640625 C 5.613281 -5.128906 5.828125 -4.425781 5.828125 -3.53125 L 5.828125 -3.078125 L 1.296875 -3.078125 C 1.296875 -2.210938 1.492188 -1.550781 1.890625 -1.09375 C 2.296875 -0.632812 2.863281 -0.40625 3.59375 -0.40625 C 3.957031 -0.40625 4.273438 -0.429688 4.546875 -0.484375 C 4.816406 -0.535156 5.160156 -0.644531 5.578125 -0.8125 L 5.578125 -0.28125 C 5.222656 -0.125 4.894531 -0.0195312 4.59375 0.03125 C 4.289062 0.0820312 3.957031 0.109375 3.59375 0.109375 Z M 3.4375 -5.921875 C 2.820312 -5.921875 2.332031 -5.71875 1.96875 -5.3125 C 1.601562 -4.914062 1.390625 -4.335938 1.328125 -3.578125 L 5.21875 -3.578125 C 5.21875 -4.304688 5.054688 -4.878906 4.734375 -5.296875 C 4.421875 -5.710938 3.988281 -5.921875 3.4375 -5.921875 Z M 3.4375 -5.921875 "/></g></g></g><g fill="#5e17eb" fill-opacity="1"><g transform="translate(148.433013, 310.682471)"><g><path d="M 3.53125 -6.421875 C 3.800781 -6.421875 4.085938 -6.394531 4.390625 -6.34375 L 4.28125 -5.796875 C 4.019531 -5.859375 3.75 -5.890625 3.46875 -5.890625 C 2.925781 -5.890625 2.484375 -5.660156 2.140625 -5.203125 C 1.796875 -4.742188 1.625 -4.171875 1.625 -3.484375 L 1.625 0 L 1.0625 0 L 1.0625 -6.296875 L 1.546875 -6.296875 L 1.59375 -5.171875 L 1.640625 -5.171875 C 1.898438 -5.628906 2.175781 -5.953125 2.46875 -6.140625 C 2.757812 -6.328125 3.113281 -6.421875 3.53125 -6.421875 Z M 3.53125 -6.421875 "/></g></g></g><g fill="#5e17eb" fill-opacity="1"><g transform="translate(153.052775, 310.682471)"><g/></g></g><g fill="#5e17eb" fill-opacity="1"><g transform="translate(156.136477, 310.682471)"><g><path d="M 6.265625 -3.15625 C 6.265625 -2.132812 6.015625 -1.332031 5.515625 -0.75 C 5.015625 -0.175781 4.328125 0.109375 3.453125 0.109375 C 2.898438 0.109375 2.410156 -0.0195312 1.984375 -0.28125 C 1.566406 -0.550781 1.242188 -0.9375 1.015625 -1.4375 C 0.796875 -1.9375 0.6875 -2.507812 0.6875 -3.15625 C 0.6875 -4.1875 0.9375 -4.988281 1.4375 -5.5625 C 1.9375 -6.132812 2.617188 -6.421875 3.484375 -6.421875 C 4.359375 -6.421875 5.039062 -6.128906 5.53125 -5.546875 C 6.019531 -4.960938 6.265625 -4.164062 6.265625 -3.15625 Z M 1.296875 -3.15625 C 1.296875 -2.289062 1.484375 -1.613281 1.859375 -1.125 C 2.242188 -0.644531 2.785156 -0.40625 3.484375 -0.40625 C 4.171875 -0.40625 4.707031 -0.644531 5.09375 -1.125 C 5.476562 -1.613281 5.671875 -2.289062 5.671875 -3.15625 C 5.671875 -4.03125 5.476562 -4.707031 5.09375 -5.1875 C 4.707031 -5.664062 4.164062 -5.90625 3.46875 -5.90625 C 2.769531 -5.90625 2.234375 -5.664062 1.859375 -5.1875 C 1.484375 -4.707031 1.296875 -4.03125 1.296875 -3.15625 Z M 1.296875 -3.15625 "/></g></g></g><g fill="#5e17eb" fill-opacity="1"><g transform="translate(163.092195, 310.682471)"><g><path d="M 5.453125 0 L 5.453125 -4.09375 C 5.453125 -4.71875 5.316406 -5.175781 5.046875 -5.46875 C 4.785156 -5.757812 4.375 -5.90625 3.8125 -5.90625 C 3.050781 -5.90625 2.492188 -5.710938 2.140625 -5.328125 C 1.796875 -4.953125 1.625 -4.335938 1.625 -3.484375 L 1.625 0 L 1.0625 0 L 1.0625 -6.296875 L 1.546875 -6.296875 L 1.65625 -5.4375 L 1.6875 -5.4375 C 2.09375 -6.09375 2.820312 -6.421875 3.875 -6.421875 C 5.300781 -6.421875 6.015625 -5.65625 6.015625 -4.125 L 6.015625 0 Z M 5.453125 0 "/></g></g></g><g fill="#5e17eb" fill-opacity="1"><g transform="translate(170.094285, 310.682471)"><g><path d="M 3.59375 0.109375 C 2.6875 0.109375 1.972656 -0.171875 1.453125 -0.734375 C 0.941406 -1.296875 0.6875 -2.085938 0.6875 -3.109375 C 0.6875 -4.109375 0.929688 -4.910156 1.421875 -5.515625 C 1.921875 -6.117188 2.59375 -6.421875 3.4375 -6.421875 C 4.175781 -6.421875 4.757812 -6.160156 5.1875 -5.640625 C 5.613281 -5.128906 5.828125 -4.425781 5.828125 -3.53125 L 5.828125 -3.078125 L 1.296875 -3.078125 C 1.296875 -2.210938 1.492188 -1.550781 1.890625 -1.09375 C 2.296875 -0.632812 2.863281 -0.40625 3.59375 -0.40625 C 3.957031 -0.40625 4.273438 -0.429688 4.546875 -0.484375 C 4.816406 -0.535156 5.160156 -0.644531 5.578125 -0.8125 L 5.578125 -0.28125 C 5.222656 -0.125 4.894531 -0.0195312 4.59375 0.03125 C 4.289062 0.0820312 3.957031 0.109375 3.59375 0.109375 Z M 3.4375 -5.921875 C 2.820312 -5.921875 2.332031 -5.71875 1.96875 -5.3125 C 1.601562 -4.914062 1.390625 -4.335938 1.328125 -3.578125 L 5.21875 -3.578125 C 5.21875 -4.304688 5.054688 -4.878906 4.734375 -5.296875 C 4.421875 -5.710938 3.988281 -5.921875 3.4375 -5.921875 Z M 3.4375 -5.921875 "/></g></g></g><g fill="#5e17eb" fill-opacity="1"><g transform="translate(176.609475, 310.682471)"><g/></g></g><g fill="#5e17eb" fill-opacity="1"><g transform="translate(179.693177, 310.682471)"><g><path d="M 6.265625 -3.15625 C 6.265625 -2.132812 6.015625 -1.332031 5.515625 -0.75 C 5.015625 -0.175781 4.328125 0.109375 3.453125 0.109375 C 2.898438 0.109375 2.410156 -0.0195312 1.984375 -0.28125 C 1.566406 -0.550781 1.242188 -0.9375 1.015625 -1.4375 C 0.796875 -1.9375 0.6875 -2.507812 0.6875 -3.15625 C 0.6875 -4.1875 0.9375 -4.988281 1.4375 -5.5625 C 1.9375 -6.132812 2.617188 -6.421875 3.484375 -6.421875 C 4.359375 -6.421875 5.039062 -6.128906 5.53125 -5.546875 C 6.019531 -4.960938 6.265625 -4.164062 6.265625 -3.15625 Z M 1.296875 -3.15625 C 1.296875 -2.289062 1.484375 -1.613281 1.859375 -1.125 C 2.242188 -0.644531 2.785156 -0.40625 3.484375 -0.40625 C 4.171875 -0.40625 4.707031 -0.644531 5.09375 -1.125 C 5.476562 -1.613281 5.671875 -2.289062 5.671875 -3.15625 C 5.671875 -4.03125 5.476562 -4.707031 5.09375 -5.1875 C 4.707031 -5.664062 4.164062 -5.90625 3.46875 -5.90625 C 2.769531 -5.90625 2.234375 -5.664062 1.859375 -5.1875 C 1.484375 -4.707031 1.296875 -4.03125 1.296875 -3.15625 Z M 1.296875 -3.15625 "/></g></g></g><g fill="#5e17eb" fill-opacity="1"><g transform="translate(186.648895, 310.682471)"><g><path d="M 5.453125 0 L 5.453125 -4.09375 C 5.453125 -4.71875 5.316406 -5.175781 5.046875 -5.46875 C 4.785156 -5.757812 4.375 -5.90625 3.8125 -5.90625 C 3.050781 -5.90625 2.492188 -5.710938 2.140625 -5.328125 C 1.796875 -4.953125 1.625 -4.335938 1.625 -3.484375 L 1.625 0 L 1.0625 0 L 1.0625 -6.296875 L 1.546875 -6.296875 L 1.65625 -5.4375 L 1.6875 -5.4375 C 2.09375 -6.09375 2.820312 -6.421875 3.875 -6.421875 C 5.300781 -6.421875 6.015625 -5.65625 6.015625 -4.125 L 6.015625 0 Z M 5.453125 0 "/></g></g></g><g fill="#5e17eb" fill-opacity="1"><g transform="translate(193.650985, 310.682471)"><g><path d="M 1.625 0 L 1.0625 0 L 1.0625 -9.015625 L 1.625 -9.015625 Z M 1.625 0 "/></g></g></g><g fill="#5e17eb" fill-opacity="1"><g transform="translate(196.334739, 310.682471)"><g><path d="M 1.625 0 L 1.0625 0 L 1.0625 -6.296875 L 1.625 -6.296875 Z M 0.96875 -8.046875 C 0.96875 -8.421875 1.09375 -8.609375 1.34375 -8.609375 C 1.457031 -8.609375 1.546875 -8.5625 1.609375 -8.46875 C 1.679688 -8.375 1.71875 -8.234375 1.71875 -8.046875 C 1.71875 -7.878906 1.679688 -7.742188 1.609375 -7.640625 C 1.546875 -7.535156 1.457031 -7.484375 1.34375 -7.484375 C 1.09375 -7.484375 0.96875 -7.671875 0.96875 -8.046875 Z M 0.96875 -8.046875 "/></g></g></g><g fill="#5e17eb" fill-opacity="1"><g transform="translate(199.018493, 310.682471)"><g><path d="M 5.453125 0 L 5.453125 -4.09375 C 5.453125 -4.71875 5.316406 -5.175781 5.046875 -5.46875 C 4.785156 -5.757812 4.375 -5.90625 3.8125 -5.90625 C 3.050781 -5.90625 2.492188 -5.710938 2.140625 -5.328125 C 1.796875 -4.953125 1.625 -4.335938 1.625 -3.484375 L 1.625 0 L 1.0625 0 L 1.0625 -6.296875 L 1.546875 -6.296875 L 1.65625 -5.4375 L 1.6875 -5.4375 C 2.09375 -6.09375 2.820312 -6.421875 3.875 -6.421875 C 5.300781 -6.421875 6.015625 -5.65625 6.015625 -4.125 L 6.015625 0 Z M 5.453125 0 "/></g></g></g><g fill="#5e17eb" fill-opacity="1"><g transform="translate(206.020583, 310.682471)"><g><path d="M 3.59375 0.109375 C 2.6875 0.109375 1.972656 -0.171875 1.453125 -0.734375 C 0.941406 -1.296875 0.6875 -2.085938 0.6875 -3.109375 C 0.6875 -4.109375 0.929688 -4.910156 1.421875 -5.515625 C 1.921875 -6.117188 2.59375 -6.421875 3.4375 -6.421875 C 4.175781 -6.421875 4.757812 -6.160156 5.1875 -5.640625 C 5.613281 -5.128906 5.828125 -4.425781 5.828125 -3.53125 L 5.828125 -3.078125 L 1.296875 -3.078125 C 1.296875 -2.210938 1.492188 -1.550781 1.890625 -1.09375 C 2.296875 -0.632812 2.863281 -0.40625 3.59375 -0.40625 C 3.957031 -0.40625 4.273438 -0.429688 4.546875 -0.484375 C 4.816406 -0.535156 5.160156 -0.644531 5.578125 -0.8125 L 5.578125 -0.28125 C 5.222656 -0.125 4.894531 -0.0195312 4.59375 0.03125 C 4.289062 0.0820312 3.957031 0.109375 3.59375 0.109375 Z M 3.4375 -5.921875 C 2.820312 -5.921875 2.332031 -5.71875 1.96875 -5.3125 C 1.601562 -4.914062 1.390625 -4.335938 1.328125 -3.578125 L 5.21875 -3.578125 C 5.21875 -4.304688 5.054688 -4.878906 4.734375 -5.296875 C 4.421875 -5.710938 3.988281 -5.921875 3.4375 -5.921875 Z M 3.4375 -5.921875 "/></g></g></g><g fill="#5e17eb" fill-opacity="1"><g transform="translate(212.535772, 310.682471)"><g/></g></g><g fill="#5e17eb" fill-opacity="1"><g transform="translate(215.619474, 310.682471)"><g><path d="M 0.21875 2.859375 C -0.09375 2.859375 -0.351562 2.804688 -0.5625 2.703125 L -0.5625 2.203125 C -0.300781 2.285156 -0.0507812 2.328125 0.1875 2.328125 C 0.769531 2.328125 1.0625 1.984375 1.0625 1.296875 L 1.0625 -6.296875 L 1.625 -6.296875 L 1.625 1.21875 C 1.625 1.738281 1.5 2.140625 1.25 2.421875 C 1.007812 2.710938 0.664062 2.859375 0.21875 2.859375 Z M 0.96875 -8.046875 C 0.96875 -8.421875 1.09375 -8.609375 1.34375 -8.609375 C 1.457031 -8.609375 1.546875 -8.5625 1.609375 -8.46875 C 1.679688 -8.375 1.71875 -8.234375 1.71875 -8.046875 C 1.71875 -7.878906 1.679688 -7.742188 1.609375 -7.640625 C 1.546875 -7.535156 1.457031 -7.484375 1.34375 -7.484375 C 1.09375 -7.484375 0.96875 -7.671875 0.96875 -8.046875 Z M 0.96875 -8.046875 "/></g></g></g><g fill="#5e17eb" fill-opacity="1"><g transform="translate(218.303228, 310.682471)"><g><path d="M 6.265625 -3.15625 C 6.265625 -2.132812 6.015625 -1.332031 5.515625 -0.75 C 5.015625 -0.175781 4.328125 0.109375 3.453125 0.109375 C 2.898438 0.109375 2.410156 -0.0195312 1.984375 -0.28125 C 1.566406 -0.550781 1.242188 -0.9375 1.015625 -1.4375 C 0.796875 -1.9375 0.6875 -2.507812 0.6875 -3.15625 C 0.6875 -4.1875 0.9375 -4.988281 1.4375 -5.5625 C 1.9375 -6.132812 2.617188 -6.421875 3.484375 -6.421875 C 4.359375 -6.421875 5.039062 -6.128906 5.53125 -5.546875 C 6.019531 -4.960938 6.265625 -4.164062 6.265625 -3.15625 Z M 1.296875 -3.15625 C 1.296875 -2.289062 1.484375 -1.613281 1.859375 -1.125 C 2.242188 -0.644531 2.785156 -0.40625 3.484375 -0.40625 C 4.171875 -0.40625 4.707031 -0.644531 5.09375 -1.125 C 5.476562 -1.613281 5.671875 -2.289062 5.671875 -3.15625 C 5.671875 -4.03125 5.476562 -4.707031 5.09375 -5.1875 C 4.707031 -5.664062 4.164062 -5.90625 3.46875 -5.90625 C 2.769531 -5.90625 2.234375 -5.664062 1.859375 -5.1875 C 1.484375 -4.707031 1.296875 -4.03125 1.296875 -3.15625 Z M 1.296875 -3.15625 "/></g></g></g><g fill="#5e17eb" fill-opacity="1"><g transform="translate(225.258947, 310.682471)"><g><path d="M 3.71875 -6.421875 C 4.59375 -6.421875 5.253906 -6.144531 5.703125 -5.59375 C 6.148438 -5.039062 6.375 -4.226562 6.375 -3.15625 C 6.375 -2.113281 6.140625 -1.304688 5.671875 -0.734375 C 5.203125 -0.171875 4.539062 0.109375 3.6875 0.109375 C 3.238281 0.109375 2.832031 0.0195312 2.46875 -0.15625 C 2.113281 -0.34375 1.832031 -0.609375 1.625 -0.953125 L 1.578125 -0.953125 L 1.421875 0 L 1.0625 0 L 1.0625 -9.015625 L 1.625 -9.015625 L 1.625 -6.75 C 1.625 -6.414062 1.617188 -6.101562 1.609375 -5.8125 L 1.59375 -5.328125 L 1.625 -5.328125 C 1.863281 -5.703125 2.148438 -5.976562 2.484375 -6.15625 C 2.828125 -6.332031 3.238281 -6.421875 3.71875 -6.421875 Z M 3.703125 -5.90625 C 2.960938 -5.90625 2.429688 -5.691406 2.109375 -5.265625 C 1.785156 -4.835938 1.625 -4.132812 1.625 -3.15625 L 1.625 -3.0625 C 1.625 -2.113281 1.789062 -1.429688 2.125 -1.015625 C 2.457031 -0.597656 2.976562 -0.390625 3.6875 -0.390625 C 4.375 -0.390625 4.890625 -0.628906 5.234375 -1.109375 C 5.585938 -1.597656 5.765625 -2.285156 5.765625 -3.171875 C 5.765625 -4.992188 5.078125 -5.90625 3.703125 -5.90625 Z M 3.703125 -5.90625 "/></g></g></g><g fill="#5e17eb" fill-opacity="1"><g transform="translate(232.324803, 310.682471)"><g/></g></g><g fill="#5e17eb" fill-opacity="1"><g transform="translate(235.408505, 310.682471)"><g><path d="M 1.625 0 L 1.0625 0 L 1.0625 -9.015625 L 1.625 -9.015625 Z M 1.625 0 "/></g></g></g><g fill="#5e17eb" fill-opacity="1"><g transform="translate(238.092259, 310.682471)"><g><path d="M 1.625 0 L 1.0625 0 L 1.0625 -6.296875 L 1.625 -6.296875 Z M 0.96875 -8.046875 C 0.96875 -8.421875 1.09375 -8.609375 1.34375 -8.609375 C 1.457031 -8.609375 1.546875 -8.5625 1.609375 -8.46875 C 1.679688 -8.375 1.71875 -8.234375 1.71875 -8.046875 C 1.71875 -7.878906 1.679688 -7.742188 1.609375 -7.640625 C 1.546875 -7.535156 1.457031 -7.484375 1.34375 -7.484375 C 1.09375 -7.484375 0.96875 -7.671875 0.96875 -8.046875 Z M 0.96875 -8.046875 "/></g></g></g><g fill="#5e17eb" fill-opacity="1"><g transform="translate(240.776013, 310.682471)"><g><path d="M 4.96875 -1.640625 C 4.96875 -1.078125 4.75 -0.644531 4.3125 -0.34375 C 3.882812 -0.0390625 3.28125 0.109375 2.5 0.109375 C 1.65625 0.109375 0.984375 -0.015625 0.484375 -0.265625 L 0.484375 -0.890625 C 1.117188 -0.578125 1.789062 -0.421875 2.5 -0.421875 C 3.113281 -0.421875 3.582031 -0.519531 3.90625 -0.71875 C 4.226562 -0.925781 4.390625 -1.203125 4.390625 -1.546875 C 4.390625 -1.867188 4.257812 -2.132812 4 -2.34375 C 3.75 -2.5625 3.332031 -2.773438 2.75 -2.984375 C 2.113281 -3.210938 1.664062 -3.410156 1.40625 -3.578125 C 1.15625 -3.742188 0.960938 -3.929688 0.828125 -4.140625 C 0.703125 -4.347656 0.640625 -4.597656 0.640625 -4.890625 C 0.640625 -5.359375 0.835938 -5.726562 1.234375 -6 C 1.628906 -6.28125 2.1875 -6.421875 2.90625 -6.421875 C 3.582031 -6.421875 4.222656 -6.296875 4.828125 -6.046875 L 4.625 -5.515625 C 4 -5.773438 3.425781 -5.90625 2.90625 -5.90625 C 2.382812 -5.90625 1.972656 -5.816406 1.671875 -5.640625 C 1.367188 -5.472656 1.21875 -5.238281 1.21875 -4.9375 C 1.21875 -4.613281 1.332031 -4.351562 1.5625 -4.15625 C 1.800781 -3.957031 2.265625 -3.734375 2.953125 -3.484375 C 3.515625 -3.285156 3.925781 -3.101562 4.1875 -2.9375 C 4.445312 -2.769531 4.640625 -2.582031 4.765625 -2.375 C 4.898438 -2.164062 4.96875 -1.921875 4.96875 -1.640625 Z M 4.96875 -1.640625 "/></g></g></g><g fill="#5e17eb" fill-opacity="1"><g transform="translate(246.305809, 310.682471)"><g><path d="M 2.71875 -0.390625 C 3.082031 -0.390625 3.398438 -0.421875 3.671875 -0.484375 L 3.671875 -0.015625 C 3.390625 0.0664062 3.066406 0.109375 2.703125 0.109375 C 2.148438 0.109375 1.738281 -0.0351562 1.46875 -0.328125 C 1.207031 -0.628906 1.078125 -1.097656 1.078125 -1.734375 L 1.078125 -5.796875 L 0.140625 -5.796875 L 0.140625 -6.140625 L 1.078125 -6.40625 L 1.375 -7.828125 L 1.671875 -7.828125 L 1.671875 -6.296875 L 3.515625 -6.296875 L 3.515625 -5.796875 L 1.671875 -5.796875 L 1.671875 -1.8125 C 1.671875 -1.332031 1.753906 -0.972656 1.921875 -0.734375 C 2.085938 -0.503906 2.351562 -0.390625 2.71875 -0.390625 Z M 2.71875 -0.390625 "/></g></g></g><g fill="#5e17eb" fill-opacity="1"><g transform="translate(250.282161, 310.682471)"><g><path d="M 1.625 0 L 1.0625 0 L 1.0625 -6.296875 L 1.625 -6.296875 Z M 0.96875 -8.046875 C 0.96875 -8.421875 1.09375 -8.609375 1.34375 -8.609375 C 1.457031 -8.609375 1.546875 -8.5625 1.609375 -8.46875 C 1.679688 -8.375 1.71875 -8.234375 1.71875 -8.046875 C 1.71875 -7.878906 1.679688 -7.742188 1.609375 -7.640625 C 1.546875 -7.535156 1.457031 -7.484375 1.34375 -7.484375 C 1.09375 -7.484375 0.96875 -7.671875 0.96875 -8.046875 Z M 0.96875 -8.046875 "/></g></g></g><g fill="#5e17eb" fill-opacity="1"><g transform="translate(252.965915, 310.682471)"><g><path d="M 5.453125 0 L 5.453125 -4.09375 C 5.453125 -4.71875 5.316406 -5.175781 5.046875 -5.46875 C 4.785156 -5.757812 4.375 -5.90625 3.8125 -5.90625 C 3.050781 -5.90625 2.492188 -5.710938 2.140625 -5.328125 C 1.796875 -4.953125 1.625 -4.335938 1.625 -3.484375 L 1.625 0 L 1.0625 0 L 1.0625 -6.296875 L 1.546875 -6.296875 L 1.65625 -5.4375 L 1.6875 -5.4375 C 2.09375 -6.09375 2.820312 -6.421875 3.875 -6.421875 C 5.300781 -6.421875 6.015625 -5.65625 6.015625 -4.125 L 6.015625 0 Z M 5.453125 0 "/></g></g></g><g fill="#5e17eb" fill-opacity="1"><g transform="translate(259.968005, 310.682471)"><g><path d="M 5.96875 -6.296875 L 5.96875 -5.90625 L 4.671875 -5.828125 C 5.015625 -5.390625 5.1875 -4.910156 5.1875 -4.390625 C 5.1875 -3.785156 4.984375 -3.296875 4.578125 -2.921875 C 4.179688 -2.546875 3.640625 -2.359375 2.953125 -2.359375 C 2.671875 -2.359375 2.472656 -2.367188 2.359375 -2.390625 C 2.128906 -2.265625 1.953125 -2.117188 1.828125 -1.953125 C 1.710938 -1.796875 1.65625 -1.628906 1.65625 -1.453125 C 1.65625 -1.242188 1.726562 -1.09375 1.875 -1 C 2.03125 -0.914062 2.289062 -0.875 2.65625 -0.875 L 3.75 -0.875 C 4.4375 -0.875 4.960938 -0.734375 5.328125 -0.453125 C 5.691406 -0.179688 5.875 0.222656 5.875 0.765625 C 5.875 1.429688 5.601562 1.945312 5.0625 2.3125 C 4.519531 2.675781 3.75 2.859375 2.75 2.859375 C 1.957031 2.859375 1.34375 2.703125 0.90625 2.390625 C 0.476562 2.085938 0.265625 1.664062 0.265625 1.125 C 0.265625 0.6875 0.394531 0.320312 0.65625 0.03125 C 0.925781 -0.25 1.289062 -0.441406 1.75 -0.546875 C 1.5625 -0.628906 1.410156 -0.742188 1.296875 -0.890625 C 1.179688 -1.035156 1.125 -1.207031 1.125 -1.40625 C 1.125 -1.820312 1.394531 -2.191406 1.9375 -2.515625 C 1.570312 -2.671875 1.285156 -2.910156 1.078125 -3.234375 C 0.867188 -3.554688 0.765625 -3.925781 0.765625 -4.34375 C 0.765625 -4.96875 0.960938 -5.46875 1.359375 -5.84375 C 1.765625 -6.226562 2.304688 -6.421875 2.984375 -6.421875 C 3.398438 -6.421875 3.722656 -6.378906 3.953125 -6.296875 Z M 0.875 1.0625 C 0.875 1.925781 1.515625 2.359375 2.796875 2.359375 C 4.453125 2.359375 5.28125 1.832031 5.28125 0.78125 C 5.28125 0.40625 5.148438 0.132812 4.890625 -0.03125 C 4.628906 -0.207031 4.210938 -0.296875 3.640625 -0.296875 L 2.609375 -0.296875 C 1.453125 -0.296875 0.875 0.15625 0.875 1.0625 Z M 1.34375 -4.34375 C 1.34375 -3.851562 1.488281 -3.472656 1.78125 -3.203125 C 2.082031 -2.929688 2.484375 -2.796875 2.984375 -2.796875 C 3.503906 -2.796875 3.90625 -2.925781 4.1875 -3.1875 C 4.46875 -3.457031 4.609375 -3.847656 4.609375 -4.359375 C 4.609375 -4.898438 4.460938 -5.300781 4.171875 -5.5625 C 3.890625 -5.832031 3.488281 -5.96875 2.96875 -5.96875 C 2.46875 -5.96875 2.070312 -5.820312 1.78125 -5.53125 C 1.488281 -5.25 1.34375 -4.851562 1.34375 -4.34375 Z M 1.34375 -4.34375 "/></g></g></g></svg>